<svg width="20" height="20" viewBox="0 0 20 20" fill="none" xmlns="http://www.w3.org/2000/svg">
<mask id="mask0_0_4789" style="mask-type:luminance" maskUnits="userSpaceOnUse" x="0" y="0" width="20" height="20">
<path fill-rule="evenodd" clip-rule="evenodd" d="M20 0V20H0V0H20Z" fill="white"/>
</mask>
<g mask="url(#mask0_0_4789)">
<path fill-rule="evenodd" clip-rule="evenodd" d="M16.6574 17.4316C17.1303 17.4315 17.4879 17.2285 17.7304 16.8225C17.9728 16.4166 17.982 16.0054 17.7578 15.5891L11.1008 3.22577C10.6285 2.34921 9.37148 2.34921 8.89921 3.22577L2.24219 15.589C2.01802 16.0054 2.02716 16.4166 2.26962 16.8225C2.51207 17.2285 2.86972 17.4315 3.34257 17.4316H16.6574V17.4316Z" stroke="#DC2626" stroke-width="1.25" stroke-linecap="round" stroke-linejoin="round"/>
<path fill-rule="evenodd" clip-rule="evenodd" d="M10.0001 12.398L10.2239 7.63437C10.2268 7.57009 10.206 7.5148 10.1613 7.4685C10.1166 7.42221 10.0621 7.39937 9.99775 7.39999C9.93466 7.40061 9.88133 7.42374 9.83776 7.46938C9.7942 7.51502 9.77357 7.56936 9.77588 7.63241L10.0001 12.398V12.398Z" stroke="#DC2626" stroke-width="1.25" stroke-linecap="round" stroke-linejoin="round"/>
<path fill-rule="evenodd" clip-rule="evenodd" d="M9.44757 15.2888C9.29502 15.1362 9.21875 14.9521 9.21875 14.7363C9.21875 14.5206 9.29502 14.3364 9.44757 14.1839C9.60012 14.0314 9.78426 13.9551 10 13.9551C10.2157 13.9551 10.3999 14.0314 10.5524 14.1839C10.705 14.3364 10.7812 14.5206 10.7812 14.7363C10.7812 14.9521 10.705 15.1362 10.5524 15.2888C10.3999 15.4413 10.2157 15.5176 10 15.5176C9.78426 15.5176 9.60012 15.4413 9.44757 15.2888Z" fill="#DC2626"/>
</g>
</svg>
