<svg width="20" height="20" viewBox="0 0 20 20" fill="none" xmlns="http://www.w3.org/2000/svg">
<mask id="mask0_0_4888" style="mask-type:luminance" maskUnits="userSpaceOnUse" x="0" y="0" width="20" height="20">
<path fill-rule="evenodd" clip-rule="evenodd" d="M20 0V20H0V0H20Z" fill="white"/>
</mask>
<g mask="url(#mask0_0_4888)">
<path fill-rule="evenodd" clip-rule="evenodd" d="M10 1.875C14.1421 1.875 17.5 3.27411 17.5 5C17.5 6.72589 14.1421 8.125 10 8.125C5.85787 8.125 2.5 6.72589 2.5 5C2.5 3.27411 5.85787 1.875 10 1.875V1.875Z" stroke="#007A3D" stroke-width="1.25"/>
<path d="M17.5 8.35938H16.875C16.875 8.573 16.7737 8.83317 16.4719 9.13041C16.1679 9.42979 15.6959 9.72817 15.0624 9.99211C13.7981 10.5188 12.0084 10.8594 10 10.8594V11.4844V12.1094C12.1322 12.1094 14.0926 11.7503 15.5431 11.146C16.267 10.8444 16.8937 10.4694 17.3489 10.021C17.8064 9.57054 18.125 9.00865 18.125 8.35938H17.5ZM10 11.4844V10.8594C7.99161 10.8594 6.20194 10.5188 4.93762 9.99211C4.3041 9.72817 3.83215 9.42979 3.52814 9.13041C3.22632 8.83317 3.125 8.573 3.125 8.35938H2.5H1.875C1.875 9.00865 2.1936 9.57054 2.65106 10.021C3.10633 10.4694 3.73301 10.8444 4.4569 11.146C5.90743 11.7503 7.86776 12.1094 10 12.1094V11.4844ZM17.5 11.7188H16.875C16.875 11.9324 16.7737 12.1925 16.4719 12.4898C16.1679 12.7892 15.6959 13.0875 15.0624 13.3515C13.7981 13.8782 12.0084 14.2188 10 14.2188V14.8438V15.4688C12.1322 15.4688 14.0926 15.1097 15.5431 14.5054C16.267 14.2038 16.8937 13.8288 17.3489 13.3804C17.8064 12.9299 18.125 12.368 18.125 11.7188H17.5ZM10 14.8438V14.2188C7.99161 14.2188 6.20194 13.8782 4.93762 13.3515C4.3041 13.0875 3.83215 12.7892 3.52814 12.4898C3.22632 12.1925 3.125 11.9324 3.125 11.7188H2.5H1.875C1.875 12.368 2.1936 12.9299 2.65106 13.3804C3.10633 13.8288 3.73301 14.2038 4.4569 14.5054C5.90743 15.1097 7.86776 15.4688 10 15.4688V14.8438Z" fill="#007A3D"/>
<path d="M2.5 4.97034V15.0297C2.5 16.7391 5.85937 18.125 10 18.125C14.1406 18.125 17.5 16.7391 17.5 15.0297V4.97034" stroke="#007A3D" stroke-width="1.25" stroke-linecap="round"/>
</g>
</svg>
