<svg width="20" height="20" viewBox="0 0 20 20" fill="none" xmlns="http://www.w3.org/2000/svg">
<mask id="mask0_0_4915" style="mask-type:luminance" maskUnits="userSpaceOnUse" x="0" y="0" width="20" height="20">
<path fill-rule="evenodd" clip-rule="evenodd" d="M20 0V20H0V0H20Z" fill="white"/>
</mask>
<g mask="url(#mask0_0_4915)">
<mask id="mask1_0_4915" style="mask-type:luminance" maskUnits="userSpaceOnUse" x="0" y="0" width="20" height="20">
<path fill-rule="evenodd" clip-rule="evenodd" d="M20 0V20H0V0H20Z" fill="white"/>
</mask>
<g mask="url(#mask1_0_4915)">
<path fill-rule="evenodd" clip-rule="evenodd" d="M8.125 4.375H6.875V3.75H8.125V4.375ZM11.4571 5H13.125V3.75H8.125V2.5H6.875V3.75H1.875V5H10.1438C10.0258 5.3537 9.86314 5.80715 9.65234 6.31934C9.17602 7.47663 8.4646 8.91152 7.48828 10.1748L7.28906 10.4248C6.19064 11.7694 5.0632 12.7839 4.21094 13.4609C3.78524 13.7991 3.4297 14.0525 3.18262 14.2197C3.05915 14.3033 2.96259 14.3648 2.89844 14.4053C2.88697 14.4125 2.87655 14.4191 2.8672 14.425C2.85041 14.4357 2.83704 14.4442 2.82715 14.4502C2.8222 14.4532 2.8181 14.4556 2.81492 14.4574C2.81318 14.4584 2.81172 14.4593 2.81055 14.46L2.80762 14.4619C2.80823 14.4629 2.8111 14.4678 2.82514 14.4916C2.85372 14.5401 2.92859 14.6672 3.125 15C3.44266 15.5383 3.44322 15.5382 3.44336 15.5381L3.44434 15.5371L3.44629 15.5361L3.45312 15.5322L3.47754 15.5176C3.49815 15.505 3.52792 15.4865 3.56543 15.4629C3.64037 15.4156 3.74779 15.3463 3.88281 15.2549C4.15331 15.0718 4.53508 14.7995 4.98828 14.4395C5.89381 13.7201 7.09064 12.6446 8.25781 11.2158L8.47559 10.9414C9.54659 9.55614 10.3089 8.00991 10.8086 6.7959C11.0762 6.14562 11.2709 5.58316 11.3994 5.18262C11.4203 5.11739 11.4396 5.05642 11.4571 5ZM11.4571 5H10.1438C10.1673 4.92953 10.189 4.86301 10.209 4.80078C10.269 4.61388 10.314 4.4663 10.3428 4.36621C10.3541 4.32689 10.3627 4.29469 10.3692 4.27062C10.371 4.26413 10.3726 4.25822 10.374 4.25293C10.3759 4.24597 10.3777 4.24002 10.3791 4.23512C10.3802 4.23129 10.3812 4.22811 10.3818 4.22559C10.3822 4.22405 10.3824 4.22268 10.3825 4.22157C10.3826 4.22083 10.3827 4.2202 10.3828 4.21973V4.21875L11.5938 4.53125L11.5928 4.53223V4.5332L11.5918 4.53613C11.5915 4.53716 11.5913 4.53837 11.5911 4.53973C11.5908 4.54154 11.5905 4.54361 11.5898 4.5459C11.5888 4.55 11.5874 4.55494 11.5857 4.5607C11.5841 4.56661 11.5822 4.5734 11.5801 4.58105L11.5787 4.58615C11.5705 4.61614 11.5591 4.65822 11.5439 4.71094C11.5224 4.78607 11.4934 4.8833 11.4571 5ZM18.6992 17.2539L14.9492 8.50391L14.375 7.16309L13.8008 8.50391L10.0508 17.2539L11.1992 17.7461L12.1083 15.625H16.6417L17.5508 17.7461L18.6992 17.2539ZM16.106 14.375L16.6417 15.625H16.9727V14.375H16.106ZM12.644 14.375L12.1083 15.625H11.7773V14.375H12.644ZM12.644 14.375H16.106L14.375 10.3359L12.644 14.375Z" fill="#007A3D"/>
<path d="M6.875 4.375H6.375V4.875H6.875V4.375ZM8.125 4.375V4.875H8.625V4.375H8.125ZM13.125 5V5.5H13.625V5H13.125ZM13.125 3.75H13.625V3.25H13.125V3.75ZM8.125 2.5H8.625V2H8.125V2.5ZM6.875 2.5V2H6.375V2.5H6.875ZM1.875 3.75V3.25H1.375V3.75H1.875ZM1.875 5H1.375V5.5H1.875V5ZM9.65234 6.31934L10.1147 6.50964L10.1147 6.50963L9.65234 6.31934ZM7.48828 10.1748L7.87935 10.4864L7.8839 10.4806L7.48828 10.1748ZM7.28906 10.4248L7.67631 10.7412L7.68009 10.7364L7.28906 10.4248ZM4.21094 13.4609L4.52196 13.8524H4.52196L4.21094 13.4609ZM3.18262 14.2197L2.90234 13.8057H2.90234L3.18262 14.2197ZM2.89844 14.4053L3.16509 14.8282L3.16511 14.8282L2.89844 14.4053ZM2.8672 14.425L2.59944 14.0028L2.59944 14.0028L2.8672 14.425ZM2.82715 14.4502L2.56688 14.0233L2.56685 14.0233L2.82715 14.4502ZM2.81492 14.4574L3.06468 14.8906L3.06472 14.8905L2.81492 14.4574ZM2.81055 14.46L2.55327 14.0312L2.54308 14.0373L2.5332 14.0439L2.81055 14.46ZM2.80762 14.4619L2.53027 14.0459L2.12422 14.3166L2.38498 14.7291L2.80762 14.4619ZM2.82514 14.4916L2.39433 14.7454L2.39434 14.7454L2.82514 14.4916ZM3.125 15L2.6944 15.2541H2.6944L3.125 15ZM3.44336 15.5381L3.69743 15.9687L3.75206 15.9365L3.79691 15.8916L3.44336 15.5381ZM3.44434 15.5371L3.22073 15.0899L3.14816 15.1262L3.09078 15.1836L3.44434 15.5371ZM3.44629 15.5361L3.6699 15.9833L3.68231 15.9771L3.69436 15.9703L3.44629 15.5361ZM3.45312 15.5322L3.70125 15.9664L3.71037 15.961L3.45312 15.5322ZM3.47754 15.5176L3.73479 15.9463L3.73781 15.9445L3.47754 15.5176ZM3.56543 15.4629L3.8321 15.8858L3.83211 15.8858L3.56543 15.4629ZM3.88281 15.2549L4.16307 15.669L4.16308 15.6689L3.88281 15.2549ZM4.98828 14.4395L5.2993 14.8309H5.2993L4.98828 14.4395ZM8.25781 11.2158L8.64507 11.5322L8.64947 11.5266L8.25781 11.2158ZM8.47559 10.9414L8.86727 11.2522L8.87115 11.2472L8.47559 10.9414ZM10.8086 6.7959L11.271 6.98621L11.271 6.9862L10.8086 6.7959ZM11.3994 5.18262L11.8755 5.33541L11.8755 5.3354L11.3994 5.18262ZM10.209 4.80078L10.6851 4.95357L10.6851 4.95357L10.209 4.80078ZM10.3428 4.36621L10.8234 4.5042L10.8234 4.50419L10.3428 4.36621ZM10.3692 4.27062L9.88649 4.14042L9.88649 4.14043L10.3692 4.27062ZM10.374 4.25293L10.8565 4.38428L10.8565 4.38425L10.374 4.25293ZM10.3791 4.23512L10.8588 4.37613L10.8588 4.37608L10.3791 4.23512ZM10.3818 4.22559L10.8651 4.35377L10.8652 4.35364L10.3818 4.22559ZM10.3825 4.22157L9.88583 4.16419L9.88579 4.16459L10.3825 4.22157ZM10.3828 4.21973L10.8665 4.34657L10.8828 4.2842V4.21973H10.3828ZM10.3828 4.21875L10.5078 3.73461L9.88281 3.57334V4.21875H10.3828ZM11.5938 4.53125L11.9473 4.8848L12.5663 4.26584L11.7187 4.04711L11.5938 4.53125ZM11.5928 4.53223L11.2392 4.17867L11.0928 4.32512V4.53223H11.5928ZM11.5928 4.5332L12.0671 4.69132L12.0928 4.61434V4.5332H11.5928ZM11.5918 4.53613L11.1175 4.37802L11.1123 4.39361L11.1081 4.40951L11.5918 4.53613ZM11.5911 4.53973L12.0843 4.62218L12.0843 4.62209L11.5911 4.53973ZM11.5898 4.5459L12.0731 4.67414L12.0731 4.67406L11.5898 4.5459ZM11.5857 4.5607L12.067 4.69633L12.067 4.69632L11.5857 4.5607ZM11.5801 4.58105L11.0976 4.44971L11.0976 4.44977L11.5801 4.58105ZM11.5787 4.58615L12.0611 4.71743V4.71743L11.5787 4.58615ZM11.5439 4.71094L12.0245 4.84892L12.0245 4.84891L11.5439 4.71094ZM14.9492 8.50391L14.4896 8.70074L14.4896 8.70087L14.9492 8.50391ZM18.6992 17.2539L18.8962 17.7135L19.3558 17.5165L19.1588 17.0569L18.6992 17.2539ZM14.375 7.16309L14.8346 6.96625L14.375 5.89301L13.9154 6.96625L14.375 7.16309ZM13.8008 8.50391L14.2604 8.70087L14.2604 8.70074L13.8008 8.50391ZM10.0508 17.2539L9.59121 17.0569L9.39425 17.5165L9.85382 17.7135L10.0508 17.2539ZM11.1992 17.7461L11.0023 18.2057L11.4618 18.4026L11.6588 17.9431L11.1992 17.7461ZM17.5508 17.7461L17.0912 17.9431L17.2882 18.4026L17.7477 18.2057L17.5508 17.7461ZM16.9727 15.625V16.125H17.4727V15.625H16.9727ZM16.9727 14.375H17.4727V13.875H16.9727V14.375ZM11.7773 15.625H11.2773V16.125H11.7773V15.625ZM11.7773 14.375V13.875H11.2773V14.375H11.7773ZM14.375 10.3359L14.8346 10.139L14.375 9.06664L13.9154 10.139L14.375 10.3359ZM6.875 4.375V4.875H8.125V4.375V3.875H6.875V4.375ZM6.875 3.75H6.375V4.375H6.875H7.375V3.75H6.875ZM8.125 3.75V3.25H6.875V3.75V4.25H8.125V3.75ZM8.125 4.375H8.625V3.75H8.125H7.625V4.375H8.125ZM13.125 5V4.5H11.4571V5V5.5H13.125V5ZM13.125 3.75H12.625V5H13.125H13.625V3.75H13.125ZM8.125 3.75V4.25H13.125V3.75V3.25H8.125V3.75ZM8.125 2.5H7.625V3.75H8.125H8.625V2.5H8.125ZM6.875 2.5V3H8.125V2.5V2H6.875V2.5ZM6.875 3.75H7.375V2.5H6.875H6.375V3.75H6.875ZM1.875 3.75V4.25H6.875V3.75V3.25H1.875V3.75ZM1.875 5H2.375V3.75H1.875H1.375V5H1.875ZM10.1438 5V4.5H1.875V5V5.5H10.1438V5ZM9.65234 6.31934L10.1147 6.50963C10.3305 5.9853 10.4971 5.52096 10.6181 5.15817L10.1438 5L9.66947 4.84183C9.55456 5.18643 9.39577 5.62899 9.18997 6.12904L9.65234 6.31934ZM7.48828 10.1748L7.8839 10.4806C8.8973 9.16929 9.6288 7.69023 10.1147 6.50964L9.65234 6.31934L9.18998 6.12903C8.72325 7.26302 8.0319 8.65374 7.09266 9.86905L7.48828 10.1748ZM7.28906 10.4248L7.68009 10.7364L7.87931 10.4864L7.48828 10.1748L7.09725 9.8632L6.89803 10.1132L7.28906 10.4248ZM4.21094 13.4609L4.52196 13.8524C5.39561 13.1584 6.55044 12.1193 7.67628 10.7411L7.28906 10.4248L6.90184 10.1085C5.83085 11.4195 4.73079 12.4094 3.89992 13.0694L4.21094 13.4609ZM3.18262 14.2197L3.46289 14.6338C3.71953 14.4601 4.08542 14.1992 4.52196 13.8524L4.21094 13.4609L3.89992 13.0694C3.48505 13.399 3.13986 13.6449 2.90234 13.8057L3.18262 14.2197ZM2.89844 14.4053L3.16511 14.8282C3.23187 14.7861 3.33336 14.7215 3.46289 14.6338L3.18262 14.2197L2.90234 13.8057C2.78495 13.8851 2.6933 13.9435 2.63177 13.9823L2.89844 14.4053ZM2.8672 14.425L3.13497 14.8473C3.14436 14.8413 3.15425 14.8351 3.16509 14.8282L2.89844 14.4053L2.63178 13.9823C2.61968 13.9899 2.60875 13.9969 2.59944 14.0028L2.8672 14.425ZM2.82715 14.4502L3.08742 14.8771C3.10199 14.8682 3.11982 14.8569 3.13497 14.8473L2.8672 14.425L2.59944 14.0028C2.58099 14.0145 2.57208 14.0201 2.56688 14.0233L2.82715 14.4502ZM2.81492 14.4574L3.06472 14.8905C3.06821 14.8885 3.07688 14.8835 3.08745 14.8771L2.82715 14.4502L2.56685 14.0233C2.56753 14.0229 2.56799 14.0226 2.56512 14.0243L2.81492 14.4574ZM2.81055 14.46L3.06782 14.8887C3.06556 14.8901 3.06396 14.891 3.0638 14.8911C3.06362 14.8912 3.06361 14.8912 3.06468 14.8906L2.81492 14.4574L2.56517 14.0243C2.56481 14.0245 2.55902 14.0278 2.55327 14.0312L2.81055 14.46ZM2.80762 14.4619L3.08497 14.8779L3.0879 14.876L2.81055 14.46L2.5332 14.0439L2.53027 14.0459L2.80762 14.4619ZM2.82514 14.4916L3.25595 14.2378C3.24661 14.222 3.23645 14.2045 3.23025 14.1947L2.80762 14.4619L2.38498 14.7291C2.38343 14.7266 2.38222 14.7247 2.38155 14.7236C2.38084 14.7224 2.38028 14.7215 2.37995 14.7209C2.37961 14.7204 2.37936 14.72 2.37923 14.7197C2.37909 14.7195 2.379 14.7194 2.37899 14.7194C2.37899 14.7193 2.37911 14.7196 2.37944 14.7201C2.37976 14.7206 2.38019 14.7214 2.38077 14.7224C2.38317 14.7264 2.38724 14.7333 2.39433 14.7454L2.82514 14.4916ZM3.125 15L3.5556 14.7459C3.35925 14.4132 3.28445 14.2862 3.25594 14.2378L2.82514 14.4916L2.39434 14.7454C2.42299 14.794 2.49792 14.9212 2.6944 15.2541L3.125 15ZM3.44336 15.5381L3.18929 15.1074C3.18985 15.1071 3.1942 15.1046 3.19801 15.1024C3.20181 15.1003 3.21268 15.0945 3.2198 15.0908C3.2386 15.0815 3.26689 15.0688 3.30284 15.0582C3.38291 15.0348 3.46909 15.0313 3.5533 15.0503C3.62889 15.0674 3.68431 15.0983 3.71657 15.1193C3.74934 15.1407 3.77298 15.1617 3.78643 15.1744C3.81234 15.1988 3.82972 15.2206 3.83543 15.2278C3.84315 15.2376 3.84889 15.2456 3.85181 15.2497C3.85767 15.258 3.86195 15.2647 3.86322 15.2666C3.86503 15.2695 3.8664 15.2716 3.86701 15.2726C3.86886 15.2756 3.86957 15.2768 3.86695 15.2724C3.86268 15.2653 3.85329 15.2496 3.83336 15.216C3.79376 15.1492 3.71442 15.015 3.5556 14.7459L3.125 15L2.6944 15.2541C2.85324 15.5233 2.93301 15.6582 2.97314 15.7259C2.99308 15.7595 3.0037 15.7774 3.00951 15.787C3.01192 15.7911 3.01519 15.7965 3.01833 15.8015C3.01927 15.803 3.02088 15.8056 3.02288 15.8087C3.02434 15.811 3.02874 15.8178 3.0347 15.8262C3.03766 15.8304 3.04344 15.8385 3.05118 15.8483C3.05692 15.8555 3.07432 15.8773 3.10024 15.9018C3.11339 15.9142 3.19572 15.9948 3.3334 16.0258C3.53302 16.0708 3.68036 15.9788 3.69743 15.9687L3.44336 15.5381ZM3.44434 15.5371L3.09078 15.1836L3.08981 15.1845L3.44336 15.5381L3.79691 15.8916L3.79789 15.8907L3.44434 15.5371ZM3.44629 15.5361L3.22268 15.0889L3.22073 15.0899L3.44434 15.5371L3.66794 15.9843L3.6699 15.9833L3.44629 15.5361ZM3.45312 15.5322L3.20506 15.0981L3.19822 15.102L3.44629 15.5361L3.69436 15.9703L3.70119 15.9663L3.45312 15.5322ZM3.47754 15.5176L3.22029 15.0888L3.19588 15.1035L3.45312 15.5322L3.71037 15.961L3.73479 15.9463L3.47754 15.5176ZM3.56543 15.4629L3.29876 15.0399C3.2626 15.0627 3.23508 15.0798 3.21727 15.0907L3.47754 15.5176L3.73781 15.9445C3.76123 15.9302 3.79324 15.9103 3.8321 15.8858L3.56543 15.4629ZM3.88281 15.2549L3.60255 14.8408C3.4722 14.929 3.36931 14.9955 3.29875 15.0399L3.56543 15.4629L3.83211 15.8858C3.91143 15.8358 4.02339 15.7635 4.16307 15.669L3.88281 15.2549ZM4.98828 14.4395L4.67726 14.048C4.2349 14.3994 3.86348 14.6642 3.60254 14.8408L3.88281 15.2549L4.16308 15.6689C4.44314 15.4794 4.83526 15.1996 5.2993 14.8309L4.98828 14.4395ZM8.25781 11.2158L7.87059 10.8995C6.73096 12.2946 5.56158 13.3454 4.67726 14.048L4.98828 14.4395L5.2993 14.8309C6.22603 14.0947 7.45031 12.9946 8.64503 11.5321L8.25781 11.2158ZM8.47559 10.9414L8.08393 10.6306L7.86616 10.905L8.25781 11.2158L8.64947 11.5266L8.86724 11.2522L8.47559 10.9414ZM10.8086 6.7959L10.3462 6.60559C9.85619 7.79617 9.11396 9.29825 8.08002 10.6356L8.47559 10.9414L8.87115 11.2472C9.97921 9.81402 10.7616 8.22364 11.271 6.98621L10.8086 6.7959ZM11.3994 5.18262L10.9233 5.02982C10.798 5.4204 10.6078 5.97001 10.3462 6.6056L10.8086 6.7959L11.271 6.9862C11.5447 6.32122 11.7437 5.74592 11.8755 5.33541L11.3994 5.18262ZM11.4571 5L10.9797 4.8516C10.9626 4.90653 10.9438 4.96604 10.9233 5.02983L11.3994 5.18262L11.8755 5.3354C11.8969 5.26875 11.9166 5.20631 11.9346 5.1484L11.4571 5ZM11.4571 5V4.5H10.1438V5V5.5H11.4571V5ZM10.1438 5L10.6181 5.15817C10.6422 5.08585 10.6645 5.01754 10.6851 4.95357L10.209 4.80078L9.7329 4.64799C9.71349 4.70848 9.69235 4.7732 9.66947 4.84183L10.1438 5ZM10.209 4.80078L10.6851 4.95357C10.746 4.76385 10.7927 4.61098 10.8234 4.5042L10.3428 4.36621L9.86219 4.22822C9.83538 4.32161 9.79198 4.46391 9.7329 4.64799L10.209 4.80078ZM10.3428 4.36621L10.8234 4.50419C10.8359 4.46068 10.8454 4.42512 10.852 4.40082L10.3692 4.27062L9.88649 4.14043C9.88006 4.16426 9.87227 4.1931 9.86219 4.22824L10.3428 4.36621ZM10.3692 4.27062L10.852 4.40083C10.8538 4.3942 10.8552 4.38889 10.8565 4.38428L10.374 4.25293L9.89159 4.12158C9.88996 4.12755 9.88821 4.13405 9.88649 4.14042L10.3692 4.27062ZM10.374 4.25293L10.8565 4.38425C10.8569 4.38265 10.8574 4.381 10.8588 4.37613L10.3791 4.23512L9.8994 4.09411C9.89796 4.09903 9.89493 4.10929 9.89158 4.12161L10.374 4.25293ZM10.3791 4.23512L10.8588 4.37608C10.8592 4.37471 10.8624 4.36418 10.8651 4.35377L10.3818 4.22559L9.89855 4.0974C9.89908 4.09538 9.89951 4.09384 9.89976 4.09296C9.90001 4.09206 9.90017 4.0915 9.90019 4.09141C9.90022 4.09132 9.90018 4.09146 9.90003 4.09197C9.89987 4.09252 9.89969 4.09314 9.89939 4.09416L10.3791 4.23512ZM10.3818 4.22559L10.8652 4.35364C10.8758 4.31348 10.8791 4.27981 10.8793 4.27855L10.3825 4.22157L9.88579 4.16459C9.88568 4.16554 9.88869 4.13461 9.89851 4.09753L10.3818 4.22559ZM10.3825 4.22157L10.8792 4.27895C10.8795 4.2769 10.8787 4.28391 10.8775 4.2919C10.8764 4.29948 10.8733 4.32037 10.8665 4.34657L10.3828 4.21973L9.89917 4.09289C9.89217 4.11956 9.88896 4.141 9.88777 4.1492C9.88705 4.15421 9.88655 4.15824 9.88628 4.16041C9.88614 4.16157 9.88603 4.16252 9.88596 4.16311C9.88589 4.16366 9.88584 4.16414 9.88583 4.16419L10.3825 4.22157ZM10.3828 4.21973H10.8828V4.21875H10.3828H9.88281V4.21973H10.3828ZM10.3828 4.21875L10.2579 4.70289L11.4688 5.01539L11.5938 4.53125L11.7187 4.04711L10.5078 3.73461L10.3828 4.21875ZM11.5938 4.53125L11.2402 4.1777L11.2392 4.17867L11.5928 4.53223L11.9463 4.88578L11.9473 4.8848L11.5938 4.53125ZM11.5928 4.53223H11.0928V4.5332H11.5928H12.0928V4.53223H11.5928ZM11.5928 4.5332L11.1184 4.37509L11.1175 4.37802L11.5918 4.53613L12.0661 4.69425L12.0671 4.69132L11.5928 4.5332ZM11.5918 4.53613L11.1081 4.40951C11.1038 4.4259 11.1012 4.43917 11.1 4.44573C11.0993 4.44934 11.0988 4.45231 11.0985 4.45408C11.0982 4.45575 11.0979 4.45724 11.0979 4.45738L11.5911 4.53973L12.0843 4.62209C12.0846 4.62034 12.0838 4.62474 12.0829 4.62988C12.0819 4.63525 12.0795 4.64739 12.0755 4.66276L11.5918 4.53613ZM11.5911 4.53973L11.0979 4.45729C11.0974 4.46024 11.1004 4.44088 11.1065 4.41773L11.5898 4.5459L12.0731 4.67406C12.0805 4.64634 12.0841 4.62284 12.0843 4.62218L11.5911 4.53973ZM11.5898 4.5459L11.1066 4.41766C11.1068 4.41696 11.1067 4.41706 11.1063 4.41861C11.1059 4.42015 11.1053 4.42203 11.1045 4.42507L11.5857 4.5607L12.067 4.69632C12.0683 4.69177 12.0708 4.68274 12.0731 4.67414L11.5898 4.5459ZM11.5857 4.5607L11.1045 4.42506C11.1028 4.43093 11.1004 4.43966 11.0976 4.44971L11.5801 4.58105L12.0625 4.7124C12.064 4.70713 12.0653 4.70229 12.067 4.69633L11.5857 4.5607ZM11.5801 4.58105L11.0976 4.44977L11.0962 4.45486L11.5787 4.58615L12.0611 4.71743L12.0625 4.71234L11.5801 4.58105ZM11.5787 4.58615L11.0962 4.45486C11.0882 4.48455 11.0775 4.5238 11.0634 4.57297L11.5439 4.71094L12.0245 4.84891C12.0407 4.79263 12.0529 4.74772 12.0611 4.71743L11.5787 4.58615ZM11.5439 4.71094L11.0634 4.57296C11.0429 4.64412 11.015 4.73785 10.9797 4.8516L11.4571 5L11.9346 5.1484C11.9718 5.02876 12.0018 4.92802 12.0245 4.84892L11.5439 4.71094ZM14.9492 8.50391L14.4896 8.70087L18.2396 17.4509L18.6992 17.2539L19.1588 17.0569L15.4088 8.30695L14.9492 8.50391ZM14.375 7.16309L13.9154 7.35992L14.4896 8.70074L14.9492 8.50391L15.4088 8.30707L14.8346 6.96625L14.375 7.16309ZM13.8008 8.50391L14.2604 8.70074L14.8346 7.35992L14.375 7.16309L13.9154 6.96625L13.3412 8.30707L13.8008 8.50391ZM10.0508 17.2539L10.5104 17.4509L14.2604 8.70087L13.8008 8.50391L13.3412 8.30695L9.59121 17.0569L10.0508 17.2539ZM11.1992 17.7461L11.3962 17.2865L10.2477 16.7943L10.0508 17.2539L9.85382 17.7135L11.0023 18.2057L11.1992 17.7461ZM12.1083 15.625L11.6487 15.428L10.7396 17.5491L11.1992 17.7461L11.6588 17.9431L12.5678 15.822L12.1083 15.625ZM12.1083 15.625V16.125H16.6417V15.625V15.125H12.1083V15.625ZM17.5508 17.7461L18.0104 17.5491L17.1013 15.428L16.6417 15.625L16.1822 15.822L17.0912 17.9431L17.5508 17.7461ZM18.6992 17.2539L18.5023 16.7943L17.3538 17.2865L17.5508 17.7461L17.7477 18.2057L18.8962 17.7135L18.6992 17.2539ZM16.6417 15.625L17.1013 15.428L16.5656 14.178L16.106 14.375L15.6465 14.572L16.1822 15.822L16.6417 15.625ZM16.6417 15.625V16.125H16.9727V15.625V15.125H16.6417V15.625ZM16.9727 15.625H17.4727V14.375H16.9727H16.4727V15.625H16.9727ZM16.9727 14.375V13.875H16.106V14.375V14.875H16.9727V14.375ZM12.644 14.375L12.1844 14.178L11.6487 15.428L12.1083 15.625L12.5678 15.822L13.1035 14.572L12.644 14.375ZM11.7773 15.625V16.125H12.1083V15.625V15.125H11.7773V15.625ZM11.7773 14.375H11.2773V15.625H11.7773H12.2773V14.375H11.7773ZM12.644 14.375V13.875H11.7773V14.375V14.875H12.644V14.375ZM16.106 14.375V13.875H12.644V14.375V14.875H16.106V14.375ZM16.106 14.375L16.5656 14.178L14.8346 10.139L14.375 10.3359L13.9154 10.5329L15.6465 14.572L16.106 14.375ZM14.375 10.3359L13.9154 10.139L12.1844 14.178L12.644 14.375L13.1035 14.572L14.8346 10.5329L14.375 10.3359Z" fill="#007A3D"/>
<path d="M10 13.125C10 13.125 8.63281 12.0703 7.1875 10.1953C5.74219 8.32031 5 6.875 5 6.875" stroke="#007A3D" stroke-width="1.25" stroke-linecap="round" stroke-linejoin="round"/>
</g>
</g>
</svg>
