<svg width="20" height="20" viewBox="0 0 20 20" fill="none" xmlns="http://www.w3.org/2000/svg">
<mask id="mask0_0_4965" style="mask-type:luminance" maskUnits="userSpaceOnUse" x="0" y="0" width="20" height="20">
<path fill-rule="evenodd" clip-rule="evenodd" d="M20 0V20H0V0H20Z" fill="white"/>
</mask>
<g mask="url(#mask0_0_4965)">
<mask id="mask1_0_4965" style="mask-type:luminance" maskUnits="userSpaceOnUse" x="0" y="0" width="20" height="20">
<path fill-rule="evenodd" clip-rule="evenodd" d="M20 0V20H0V0H20Z" fill="white"/>
</mask>
<g mask="url(#mask1_0_4965)">
<path fill-rule="evenodd" clip-rule="evenodd" d="M11.25 5.3125C11.25 5.13511 11.1422 4.90786 10.876 4.69922C10.6121 4.49245 10.276 4.375 10 4.375H4.0625C3.82986 4.375 3.64034 4.44134 3.4707 4.58398L3.39941 4.64941C3.21153 4.83729 3.125 5.04678 3.125 5.3125V14.6875C3.125 14.9532 3.21153 15.1627 3.39941 15.3506L3.4707 15.416C3.64034 15.5587 3.82986 15.625 4.0625 15.625H10.3125C10.5782 15.625 10.7877 15.5385 10.9756 15.3506L11.041 15.2793C11.1837 15.1097 11.25 14.9201 11.25 14.6875V13.125H12.5V14.6875C12.5 15.2102 12.3327 15.6792 12.0078 16.0713L11.8594 16.2344C11.4371 16.6567 10.9097 16.875 10.3125 16.875H4.0625C3.53981 16.875 3.07076 16.7077 2.67871 16.3828L2.51562 16.2344C2.09331 15.8121 1.875 15.2847 1.875 14.6875V5.3125C1.875 4.71527 2.09331 4.18793 2.51562 3.76562L2.67871 3.61719C3.07076 3.29233 3.53981 3.125 4.0625 3.125H10C10.5869 3.125 11.1886 3.35706 11.6465 3.71582C12.102 4.07271 12.5 4.62701 12.5 5.3125V6.875H11.25V5.3125ZM17.9424 9.55762L18.3838 10L17.9424 10.4424L14.8174 13.5674L13.9326 12.6826L15.9902 10.625H16.875V9.375H15.9902L13.9326 7.31738L14.8174 6.43262L17.9424 9.55762ZM16.6152 10L15.9902 9.375H6.875V10.625H15.9902L16.6152 10Z" fill="#DC2626"/>
<path d="M10.876 4.69922L11.1844 4.30565L11.1844 4.30564L10.876 4.69922ZM4.0625 4.375V3.875H4.0625L4.0625 4.375ZM3.4707 4.58398L3.14891 4.2013L3.14061 4.20828L3.13261 4.21562L3.4707 4.58398ZM3.39941 4.64941L3.06132 4.28105L3.05344 4.28828L3.04587 4.29585L3.39941 4.64941ZM3.39941 15.3506L3.04587 15.7041L3.05344 15.7117L3.06132 15.719L3.39941 15.3506ZM3.4707 15.416L3.13261 15.7844L3.14061 15.7917L3.14891 15.7987L3.4707 15.416ZM4.0625 15.625L4.0625 16.125H4.0625V15.625ZM10.3125 15.625V16.125H10.3125L10.3125 15.625ZM10.9756 15.3506L11.3291 15.7041L11.3367 15.6966L11.344 15.6887L10.9756 15.3506ZM11.041 15.2793L11.4094 15.6174L11.4167 15.6094L11.4237 15.6011L11.041 15.2793ZM11.25 13.125V12.625H10.75V13.125H11.25ZM12.5 13.125H13V12.625H12.5V13.125ZM12.0078 16.0713L12.3776 16.4078L12.3854 16.3993L12.3928 16.3903L12.0078 16.0713ZM11.8594 16.2344L12.2129 16.5879L12.2212 16.5796L12.2291 16.5709L11.8594 16.2344ZM10.3125 16.875V17.375H10.3125L10.3125 16.875ZM4.0625 16.875L4.0625 17.375H4.0625V16.875ZM2.67871 16.3828L2.34215 16.7526L2.35075 16.7604L2.35969 16.7678L2.67871 16.3828ZM2.51562 16.2344L2.16208 16.5879L2.17038 16.5962L2.17907 16.6041L2.51562 16.2344ZM2.51562 3.76562L2.17907 3.39586L2.17038 3.40376L2.16208 3.41207L2.51562 3.76562ZM2.67871 3.61719L2.35969 3.23219L2.35075 3.2396L2.34215 3.24742L2.67871 3.61719ZM4.0625 3.125V2.625H4.0625L4.0625 3.125ZM11.6465 3.71582L11.9549 3.32224L11.9549 3.32224L11.6465 3.71582ZM12.5 6.875V7.375H13V6.875H12.5ZM11.25 6.875H10.75V7.375H11.25V6.875ZM18.3838 10L18.7377 10.3532L19.0901 10L18.7377 9.64684L18.3838 10ZM17.9424 9.55762L18.2963 9.20445L18.2959 9.20406L17.9424 9.55762ZM17.9424 10.4424L18.2959 10.7959L18.2963 10.7955L17.9424 10.4424ZM14.8174 13.5674L14.4638 13.9209L14.8174 14.2745L15.1709 13.9209L14.8174 13.5674ZM13.9326 12.6826L13.5791 12.3291L13.2255 12.6826L13.5791 13.0362L13.9326 12.6826ZM16.875 10.625V11.125H17.375V10.625H16.875ZM16.875 9.375H17.375V8.875H16.875V9.375ZM13.9326 7.31738L13.5791 6.96383L13.2255 7.31738L13.5791 7.67094L13.9326 7.31738ZM14.8174 6.43262L15.1709 6.07906L14.8174 5.72551L14.4638 6.07906L14.8174 6.43262ZM16.6152 10L16.9688 10.3536L17.3223 10L16.9688 9.64645L16.6152 10ZM6.875 9.375V8.875H6.375V9.375H6.875ZM6.875 10.625H6.375V11.125H6.875V10.625ZM10.876 4.69922L10.5676 5.09279C10.7549 5.23958 10.75 5.33524 10.75 5.3125H11.25H11.75C11.75 4.93498 11.5296 4.57614 11.1844 4.30565L10.876 4.69922ZM10 4.375V4.875C10.1524 4.875 10.382 4.94734 10.5676 5.0928L10.876 4.69922L11.1844 4.30564C10.8422 4.03756 10.3996 3.875 10 3.875V4.375ZM4.0625 4.375V4.875H10V4.375V3.875H4.0625V4.375ZM3.4707 4.58398L3.79249 4.96667C3.86626 4.90465 3.93982 4.875 4.0625 4.875L4.0625 4.375L4.0625 3.875C3.71989 3.875 3.41443 3.97803 3.14891 4.2013L3.4707 4.58398ZM3.39941 4.64941L3.7375 5.01778L3.80879 4.95235L3.4707 4.58398L3.13261 4.21562L3.06132 4.28105L3.39941 4.64941ZM3.125 5.3125H3.625C3.625 5.17904 3.6591 5.09683 3.75296 5.00297L3.39941 4.64941L3.04587 4.29585C2.76397 4.57774 2.625 4.91452 2.625 5.3125H3.125ZM3.125 14.6875H3.625V5.3125H3.125H2.625V14.6875H3.125ZM3.39941 15.3506L3.75296 14.997C3.6591 14.9032 3.625 14.821 3.625 14.6875H3.125H2.625C2.625 15.0855 2.76397 15.4223 3.04587 15.7041L3.39941 15.3506ZM3.4707 15.416L3.80879 15.0476L3.7375 14.9822L3.39941 15.3506L3.06132 15.719L3.13261 15.7844L3.4707 15.416ZM4.0625 15.625L4.0625 15.125C3.93982 15.125 3.86625 15.0954 3.79249 15.0333L3.4707 15.416L3.14891 15.7987C3.41443 16.022 3.71989 16.125 4.0625 16.125L4.0625 15.625ZM10.3125 15.625V15.125H4.0625V15.625V16.125H10.3125V15.625ZM10.9756 15.3506L10.622 14.997C10.5282 15.0909 10.446 15.125 10.3125 15.125L10.3125 15.625L10.3125 16.125C10.7105 16.125 11.0473 15.986 11.3291 15.7041L10.9756 15.3506ZM11.041 15.2793L10.6726 14.9412L10.6072 15.0125L10.9756 15.3506L11.344 15.6887L11.4094 15.6174L11.041 15.2793ZM11.25 14.6875H10.75C10.75 14.8102 10.7204 14.8837 10.6583 14.9575L11.041 15.2793L11.4237 15.6011C11.647 15.3356 11.75 15.0301 11.75 14.6875H11.25ZM11.25 13.125H10.75V14.6875H11.25H11.75V13.125H11.25ZM12.5 13.125V12.625H11.25V13.125V13.625H12.5V13.125ZM12.5 14.6875H13V13.125H12.5H12V14.6875H12.5ZM12.0078 16.0713L12.3928 16.3903C12.7938 15.9064 13 15.3238 13 14.6875H12.5H12C12 15.0966 11.8715 15.4521 11.6228 15.7523L12.0078 16.0713ZM11.8594 16.2344L12.2291 16.5709L12.3776 16.4078L12.0078 16.0713L11.638 15.7347L11.4896 15.8978L11.8594 16.2344ZM10.3125 16.875L10.3125 17.375C11.0423 17.375 11.6968 17.1041 12.2129 16.5879L11.8594 16.2344L11.5058 15.8808C11.1773 16.2093 10.7772 16.375 10.3125 16.375L10.3125 16.875ZM4.0625 16.875V17.375H10.3125V16.875V16.375H4.0625V16.875ZM2.67871 16.3828L2.35969 16.7678C2.84361 17.1688 3.42618 17.375 4.0625 17.375L4.0625 16.875L4.0625 16.375C3.65344 16.375 3.2979 16.2465 2.99773 15.9978L2.67871 16.3828ZM2.51562 16.2344L2.17907 16.6041L2.34215 16.7526L2.67871 16.3828L3.01527 16.013L2.85218 15.8646L2.51562 16.2344ZM1.875 14.6875H1.375C1.375 15.4173 1.64594 16.0718 2.16208 16.5879L2.51562 16.2344L2.86917 15.8808C2.54068 15.5523 2.375 15.1522 2.375 14.6875H1.875ZM1.875 5.3125H1.375V14.6875H1.875H2.375V5.3125H1.875ZM2.51562 3.76562L2.16208 3.41207C1.64594 3.92819 1.375 4.58273 1.375 5.3125H1.875H2.375C2.375 4.84781 2.54068 4.44766 2.86917 4.11918L2.51562 3.76562ZM2.67871 3.61719L2.34215 3.24742L2.17907 3.39586L2.51562 3.76562L2.85218 4.13539L3.01527 3.98696L2.67871 3.61719ZM4.0625 3.125L4.0625 2.625C3.42618 2.625 2.84361 2.8312 2.35969 3.23219L2.67871 3.61719L2.99773 4.00219C3.2979 3.75346 3.65344 3.625 4.0625 3.625L4.0625 3.125ZM10 3.125V2.625H4.0625V3.125V3.625H10V3.125ZM11.6465 3.71582L11.9549 3.32224C11.4196 2.90282 10.7114 2.625 10 2.625V3.125V3.625C10.4623 3.625 10.9576 3.8113 11.3381 4.1094L11.6465 3.71582ZM12.5 5.3125H13C13 4.42277 12.485 3.73759 11.9549 3.32224L11.6465 3.71582L11.3381 4.1094C11.719 4.40782 12 4.83126 12 5.3125H12.5ZM12.5 6.875H13V5.3125H12.5H12V6.875H12.5ZM11.25 6.875V7.375H12.5V6.875V6.375H11.25V6.875ZM11.25 5.3125H10.75V6.875H11.25H11.75V5.3125H11.25ZM18.3838 10L18.7377 9.64684L18.2963 9.20445L17.9424 9.55762L17.5884 9.91078L18.0298 10.3532L18.3838 10ZM17.9424 10.4424L18.2963 10.7955L18.7377 10.3532L18.3838 10L18.0298 9.64684L17.5884 10.0892L17.9424 10.4424ZM14.8174 13.5674L15.1709 13.9209L18.2959 10.7959L17.9424 10.4424L17.5888 10.0888L14.4638 13.2138L14.8174 13.5674ZM13.9326 12.6826L13.5791 13.0362L14.4638 13.9209L14.8174 13.5674L15.1709 13.2138L14.2862 12.3291L13.9326 12.6826ZM15.9902 10.625L15.6367 10.2714L13.5791 12.3291L13.9326 12.6826L14.2862 13.0362L16.3438 10.9786L15.9902 10.625ZM16.875 10.625V10.125H15.9902V10.625V11.125H16.875V10.625ZM16.875 9.375H16.375V10.625H16.875H17.375V9.375H16.875ZM15.9902 9.375V9.875H16.875V9.375V8.875H15.9902V9.375ZM13.9326 7.31738L13.5791 7.67094L15.6367 9.72855L15.9902 9.375L16.3438 9.02145L14.2862 6.96383L13.9326 7.31738ZM14.8174 6.43262L14.4638 6.07906L13.5791 6.96383L13.9326 7.31738L14.2862 7.67094L15.1709 6.78617L14.8174 6.43262ZM17.9424 9.55762L18.2959 9.20406L15.1709 6.07906L14.8174 6.43262L14.4638 6.78617L17.5888 9.91117L17.9424 9.55762ZM15.9902 9.375L15.6367 9.72855L16.2617 10.3536L16.6152 10L16.9688 9.64645L16.3438 9.02145L15.9902 9.375ZM6.875 9.375V9.875H15.9902V9.375V8.875H6.875V9.375ZM6.875 10.625H7.375V9.375H6.875H6.375V10.625H6.875ZM15.9902 10.625V10.125H6.875V10.625V11.125H15.9902V10.625ZM16.6152 10L16.2617 9.64645L15.6367 10.2714L15.9902 10.625L16.3438 10.9786L16.9688 10.3536L16.6152 10Z" fill="#DC2626"/>
</g>
</g>
</svg>
