<svg width="20" height="21" viewBox="0 0 20 21" fill="none" xmlns="http://www.w3.org/2000/svg">
<mask id="mask0_0_4748" style="mask-type:luminance" maskUnits="userSpaceOnUse" x="0" y="0" width="20" height="21">
<path fill-rule="evenodd" clip-rule="evenodd" d="M20 0.5V20.5H0V0.5H20Z" fill="white"/>
</mask>
<g mask="url(#mask0_0_4748)">
<mask id="mask1_0_4748" style="mask-type:luminance" maskUnits="userSpaceOnUse" x="0" y="0" width="20" height="21">
<path fill-rule="evenodd" clip-rule="evenodd" d="M20 0.5V20.5H0V0.5H20Z" fill="white"/>
</mask>
<g mask="url(#mask1_0_4748)">
<path fill-rule="evenodd" clip-rule="evenodd" d="M10 9.875C8.28125 9.875 6.71289 8.19063 6.5625 6.125C6.40625 3.97656 7.92969 2.375 10 2.375C12.0703 2.375 13.5937 4.01562 13.4375 6.125C13.2844 8.19024 11.7187 9.875 10 9.875V9.875Z" stroke="#007A3D" stroke-width="1.25" stroke-linecap="round" stroke-linejoin="round"/>
<path fill-rule="evenodd" clip-rule="evenodd" d="M2.51416 17.7891C2.4372 18.2156 2.67862 18.625 3.1251 18.625H16.8751C17.322 18.625 17.5634 18.2156 17.4864 17.7891C16.8478 14.25 13.3985 12.375 10.0001 12.375C6.60166 12.375 3.15244 14.25 2.51416 17.7891V17.7891Z" stroke="#007A3D" stroke-width="1.25"/>
</g>
</g>
</svg>
