<svg width="20" height="20" viewBox="0 0 20 20" fill="none" xmlns="http://www.w3.org/2000/svg">
<mask id="mask0_0_4814" style="mask-type:luminance" maskUnits="userSpaceOnUse" x="0" y="0" width="20" height="20">
<path fill-rule="evenodd" clip-rule="evenodd" d="M20 0V20H0V0H20Z" fill="white"/>
</mask>
<g mask="url(#mask0_0_4814)">
<mask id="mask1_0_4814" style="mask-type:luminance" maskUnits="userSpaceOnUse" x="0" y="0" width="20" height="20">
<path fill-rule="evenodd" clip-rule="evenodd" d="M20 0V20H0V0H20Z" fill="white"/>
</mask>
<g mask="url(#mask1_0_4814)">
<path d="M8.20083 3.67417L8.64277 3.23224L8.64276 3.23223L8.20083 3.67417ZM8.20083 8.20083L8.64276 8.64277L8.64277 8.64277L8.20083 8.20083ZM3.67417 8.20083L3.23223 8.64276L3.23224 8.64277L3.67417 8.20083ZM8.20083 11.7992L8.64277 11.3572L8.64276 11.3572L8.20083 11.7992ZM8.20083 16.3258L8.64276 16.7678L8.64277 16.7678L8.20083 16.3258ZM3.67417 16.3258L3.23223 16.7678L3.23223 16.7678L3.67417 16.3258ZM16.3258 3.67417L16.7678 3.23224L16.7678 3.23223L16.3258 3.67417ZM16.3258 8.20083L16.7678 8.64277L16.7678 8.64276L16.3258 8.20083ZM11.7992 8.20083L11.3572 8.64276L11.3572 8.64277L11.7992 8.20083ZM16.3258 11.7992L16.7678 11.3572L16.7678 11.3572L16.3258 11.7992ZM16.3258 16.3258L16.7678 16.7678L16.7678 16.7678L16.3258 16.3258ZM11.7992 16.3258L11.3572 16.7678L11.3572 16.7678L11.7992 16.3258ZM3.67417 3.67417L4.11611 4.11612C4.36503 3.86721 4.648 3.75 5 3.75V3.125V2.5C4.31647 2.5 3.71556 2.74891 3.23224 3.23223L3.67417 3.67417ZM5 3.125V3.75H6.875V3.125V2.5H5V3.125ZM6.875 3.125V3.75C7.227 3.75 7.50997 3.86721 7.75889 4.11612L8.20083 3.67417L8.64276 3.23223C8.15944 2.74891 7.55853 2.5 6.875 2.5V3.125ZM8.20083 3.67417L7.75888 4.11611C8.00779 4.36503 8.125 4.648 8.125 5H8.75H9.375C9.375 4.31647 9.12609 3.71556 8.64277 3.23224L8.20083 3.67417ZM8.75 5H8.125V6.875H8.75H9.375V5H8.75ZM8.75 6.875H8.125C8.125 7.22701 8.00779 7.50998 7.75888 7.75888L8.20083 8.20083L8.64277 8.64277C9.12609 8.15944 9.375 7.55853 9.375 6.875H8.75ZM8.20083 8.20083L7.75889 7.75888C7.50997 8.00779 7.227 8.125 6.875 8.125V8.75V9.375C7.55853 9.375 8.15944 9.12609 8.64276 8.64277L8.20083 8.20083ZM6.875 8.75V8.125H5V8.75V9.375H6.875V8.75ZM5 8.75V8.125C4.648 8.125 4.36503 8.00779 4.11611 7.75888L3.67417 8.20083L3.23224 8.64277C3.71556 9.12609 4.31647 9.375 5 9.375V8.75ZM3.67417 8.20083L4.11612 7.75889C3.86721 7.50997 3.75 7.227 3.75 6.875H3.125H2.5C2.5 7.55853 2.74891 8.15944 3.23223 8.64276L3.67417 8.20083ZM3.125 6.875H3.75V5H3.125H2.5V6.875H3.125ZM3.125 5H3.75C3.75 4.648 3.86721 4.36503 4.11612 4.11611L3.67417 3.67417L3.23223 3.23224C2.74891 3.71556 2.5 4.31647 2.5 5H3.125ZM3.67417 11.7992L4.11611 12.2411C4.36503 11.9922 4.648 11.875 5 11.875V11.25V10.625C4.31647 10.625 3.71556 10.8739 3.23224 11.3572L3.67417 11.7992ZM5 11.25V11.875H6.875V11.25V10.625H5V11.25ZM6.875 11.25V11.875C7.227 11.875 7.50997 11.9922 7.75889 12.2411L8.20083 11.7992L8.64276 11.3572C8.15944 10.8739 7.55853 10.625 6.875 10.625V11.25ZM8.20083 11.7992L7.75888 12.2411C8.00779 12.49 8.125 12.773 8.125 13.125H8.75H9.375C9.375 12.4415 9.12609 11.8406 8.64277 11.3572L8.20083 11.7992ZM8.75 13.125H8.125V15H8.75H9.375V13.125H8.75ZM8.75 15H8.125C8.125 15.352 8.00779 15.635 7.75888 15.8839L8.20083 16.3258L8.64277 16.7678C9.12609 16.2844 9.375 15.6835 9.375 15H8.75ZM8.20083 16.3258L7.75889 15.8839C7.50997 16.1328 7.227 16.25 6.875 16.25V16.875V17.5C7.55853 17.5 8.15944 17.2511 8.64276 16.7678L8.20083 16.3258ZM6.875 16.875V16.25H5V16.875V17.5H6.875V16.875ZM5 16.875V16.25C4.64799 16.25 4.36502 16.1328 4.11612 15.8839L3.67417 16.3258L3.23223 16.7678C3.71556 17.2511 4.31647 17.5 5 17.5V16.875ZM3.67417 16.3258L4.11612 15.8839C3.86721 15.635 3.75 15.352 3.75 15H3.125H2.5C2.5 15.6835 2.74891 16.2844 3.23223 16.7678L3.67417 16.3258ZM3.125 15H3.75V13.125H3.125H2.5V15H3.125ZM3.125 13.125H3.75C3.75 12.773 3.86721 12.49 4.11612 12.2411L3.67417 11.7992L3.23223 11.3572C2.74891 11.8406 2.5 12.4415 2.5 13.125H3.125ZM11.7992 3.67417L12.2411 4.11612C12.49 3.86721 12.773 3.75 13.125 3.75V3.125V2.5C12.4415 2.5 11.8406 2.74891 11.3572 3.23223L11.7992 3.67417ZM13.125 3.125V3.75H15V3.125V2.5H13.125V3.125ZM15 3.125V3.75C15.352 3.75 15.635 3.86721 15.8839 4.11612L16.3258 3.67417L16.7678 3.23223C16.2844 2.74891 15.6835 2.5 15 2.5V3.125ZM16.3258 3.67417L15.8839 4.11611C16.1328 4.36503 16.25 4.648 16.25 5H16.875H17.5C17.5 4.31647 17.2511 3.71556 16.7678 3.23224L16.3258 3.67417ZM16.875 5H16.25V6.875H16.875H17.5V5H16.875ZM16.875 6.875H16.25C16.25 7.227 16.1328 7.50997 15.8839 7.75889L16.3258 8.20083L16.7678 8.64276C17.2511 8.15944 17.5 7.55853 17.5 6.875H16.875ZM16.3258 8.20083L15.8839 7.75888C15.635 8.00779 15.352 8.125 15 8.125V8.75V9.375C15.6835 9.375 16.2844 9.12609 16.7678 8.64277L16.3258 8.20083ZM15 8.75V8.125H13.125V8.75V9.375H15V8.75ZM13.125 8.75V8.125C12.773 8.125 12.49 8.00779 12.2411 7.75888L11.7992 8.20083L11.3572 8.64277C11.8406 9.12609 12.4415 9.375 13.125 9.375V8.75ZM11.7992 8.20083L12.2411 7.75889C11.9922 7.50997 11.875 7.227 11.875 6.875H11.25H10.625C10.625 7.55853 10.8739 8.15944 11.3572 8.64276L11.7992 8.20083ZM11.25 6.875H11.875V5H11.25H10.625V6.875H11.25ZM11.25 5H11.875C11.875 4.648 11.9922 4.36503 12.2411 4.11611L11.7992 3.67417L11.3572 3.23224C10.8739 3.71556 10.625 4.31647 10.625 5H11.25ZM11.7992 11.7992L12.2411 12.2411C12.49 11.9922 12.773 11.875 13.125 11.875V11.25V10.625C12.4415 10.625 11.8406 10.8739 11.3572 11.3572L11.7992 11.7992ZM13.125 11.25V11.875H15V11.25V10.625H13.125V11.25ZM15 11.25V11.875C15.352 11.875 15.635 11.9922 15.8839 12.2411L16.3258 11.7992L16.7678 11.3572C16.2844 10.8739 15.6835 10.625 15 10.625V11.25ZM16.3258 11.7992L15.8839 12.2411C16.1328 12.49 16.25 12.773 16.25 13.125H16.875H17.5C17.5 12.4415 17.2511 11.8406 16.7678 11.3572L16.3258 11.7992ZM16.875 13.125H16.25V15H16.875H17.5V13.125H16.875ZM16.875 15H16.25C16.25 15.352 16.1328 15.635 15.8839 15.8839L16.3258 16.3258L16.7678 16.7678C17.2511 16.2844 17.5 15.6835 17.5 15H16.875ZM16.3258 16.3258L15.8839 15.8839C15.635 16.1328 15.352 16.25 15 16.25V16.875V17.5C15.6835 17.5 16.2844 17.2511 16.7678 16.7678L16.3258 16.3258ZM15 16.875V16.25H13.125V16.875V17.5H15V16.875ZM13.125 16.875V16.25C12.773 16.25 12.49 16.1328 12.2411 15.8839L11.7992 16.3258L11.3572 16.7678C11.8406 17.2511 12.4415 17.5 13.125 17.5V16.875ZM11.7992 16.3258L12.2411 15.8839C11.9922 15.635 11.875 15.352 11.875 15H11.25H10.625C10.625 15.6835 10.8739 16.2844 11.3572 16.7678L11.7992 16.3258ZM11.25 15H11.875V13.125H11.25H10.625V15H11.25ZM11.25 13.125H11.875C11.875 12.773 11.9922 12.49 12.2411 12.2411L11.7992 11.7992L11.3572 11.3572C10.8739 11.8406 10.625 12.4415 10.625 13.125H11.25Z" fill="#007A3D"/>
</g>
</g>
</svg>
