<svg width="20" height="20" viewBox="0 0 20 20" fill="none" xmlns="http://www.w3.org/2000/svg">
<mask id="mask0_0_5008" style="mask-type:luminance" maskUnits="userSpaceOnUse" x="0" y="0" width="20" height="20">
<path fill-rule="evenodd" clip-rule="evenodd" d="M20 0V20H0V0H20Z" fill="white"/>
</mask>
<g mask="url(#mask0_0_5008)">
<mask id="mask1_0_5008" style="mask-type:luminance" maskUnits="userSpaceOnUse" x="0" y="0" width="20" height="20">
<path fill-rule="evenodd" clip-rule="evenodd" d="M20 0V20H0V0H20Z" fill="white"/>
</mask>
<g mask="url(#mask1_0_5008)">
<path fill-rule="evenodd" clip-rule="evenodd" d="M10 2.5C5.85937 2.5 2.5 5.85937 2.5 10C2.5 14.1406 5.85937 17.5 10 17.5C14.1406 17.5 17.5 14.1406 17.5 10C17.5 5.85937 14.1406 2.5 10 2.5V2.5Z" stroke="#007A3D" stroke-width="1.25"/>
<path fill-rule="evenodd" clip-rule="evenodd" d="M10.0001 11.25L10.2239 6.48633C10.2268 6.42205 10.206 6.36676 10.1613 6.32047C10.1166 6.27416 10.0621 6.25133 9.99775 6.25195C9.93426 6.25255 9.88069 6.2759 9.83704 6.32202C9.79339 6.36813 9.773 6.4229 9.77588 6.48633L10.0001 11.25V11.25Z" stroke="#007A3D" stroke-width="1.25" stroke-linecap="round" stroke-linejoin="round"/>
<path fill-rule="evenodd" clip-rule="evenodd" d="M9.44757 14.1426C9.29502 13.9901 9.21875 13.8059 9.21875 13.5902C9.21875 13.3745 9.29502 13.1903 9.44757 13.0378C9.60012 12.8852 9.78426 12.809 10 12.809C10.2157 12.809 10.3999 12.8852 10.5524 13.0378C10.705 13.1903 10.7812 13.3745 10.7812 13.5902C10.7812 13.8059 10.705 13.9901 10.5524 14.1426C10.3999 14.2952 10.2157 14.3715 10 14.3715C9.78426 14.3715 9.60012 14.2952 9.44757 14.1426Z" fill="#007A3D"/>
</g>
</g>
</svg>
