<svg width="24" height="24" viewBox="0 0 24 24" fill="none" xmlns="http://www.w3.org/2000/svg">
<path d="M21.9063 3.00685C22.2535 3.03893 22.5674 3.1866 22.8193 3.43849C23.1067 3.72584 23.2586 4.0939 23.2578 4.50001V18C23.2578 18.406 23.1054 18.7735 22.8184 19.0606C22.5313 19.3476 22.1638 19.5 21.7578 19.5C15.8467 19.5 13.8148 20.6924 12.5938 22.2188L12.0078 22.9512L11.4219 22.2178C10.2091 20.7005 8.16807 19.5 2.25782 19.5C1.80543 19.5 1.40914 19.3081 1.1377 18.9893C0.876015 18.6817 0.757816 18.2909 0.757816 17.9092V4.50001C0.757033 4.09394 0.908906 3.72585 1.19629 3.43849L1.30762 3.33693C1.57681 3.11479 1.90429 2.99868 2.26075 3.00001L2.83887 3.00685C5.68218 3.064 7.87477 3.45327 9.48731 4.22364C10.6066 4.75844 11.4385 5.47498 12.0078 6.36329C12.5771 5.47498 13.409 4.75844 14.5283 4.22364C16.2484 3.40188 18.629 3.01402 21.7549 3.00001L21.9063 3.00685Z" fill="#007A3D"/>
<path d="M21.9063 3.00685L21.9523 2.50897L21.9406 2.50789L21.9288 2.50736L21.9063 3.00685ZM22.8193 3.43849L23.1729 3.08493L23.1729 3.08491L22.8193 3.43849ZM23.2578 4.50001L22.7578 4.49905V4.50001H23.2578ZM22.8184 19.0606L23.1719 19.4141L23.1719 19.4141L22.8184 19.0606ZM21.7578 19.5V19V19.5ZM12.5938 22.2188L12.9842 22.5311L12.9842 22.5311L12.5938 22.2188ZM12.0078 22.9512L11.6172 23.2633L12.0076 23.7519L12.3982 23.2635L12.0078 22.9512ZM11.4219 22.2178L11.8125 21.9057L11.8124 21.9056L11.4219 22.2178ZM2.25782 19.5L2.25781 20H2.25782V19.5ZM1.1377 18.9893L0.756857 19.3132L0.756999 19.3134L1.1377 18.9893ZM0.757816 4.50001H1.25782L1.25781 4.49905L0.757816 4.50001ZM1.19629 3.43849L0.859311 3.0691L0.850851 3.07682L0.842753 3.08492L1.19629 3.43849ZM1.30762 3.33693L0.989382 2.95128L0.979809 2.95918L0.970639 2.96754L1.30762 3.33693ZM2.26075 3.00001L2.26666 2.50003L2.26261 2.50001L2.26075 3.00001ZM2.83887 3.00685L2.84892 2.50693L2.84478 2.50688L2.83887 3.00685ZM9.48731 4.22364L9.70286 3.77249L9.70284 3.77249L9.48731 4.22364ZM12.0078 6.36329L11.5869 6.63309L12.0078 7.28992L12.4288 6.63309L12.0078 6.36329ZM14.5283 4.22364L14.3128 3.77249L14.3128 3.77249L14.5283 4.22364ZM21.7549 3.00001L21.7774 2.50052L21.7651 2.49996L21.7526 2.50002L21.7549 3.00001ZM21.9063 3.00685L21.8602 3.50473C22.0896 3.52592 22.2952 3.62151 22.4658 3.79207L22.8193 3.43849L23.1729 3.08491C22.8396 2.75169 22.4173 2.55195 21.9523 2.50897L21.9063 3.00685ZM22.8193 3.43849L22.4658 3.79204C22.6591 3.98534 22.7583 4.22581 22.7578 4.49905L23.2578 4.50001L23.7578 4.50097C23.7589 3.96199 23.5543 3.46634 23.1729 3.08493L22.8193 3.43849ZM23.2578 4.50001H22.7578V18H23.2578H23.7578V4.50001H23.2578ZM23.2578 18H22.7578C22.7578 18.2732 22.6582 18.5136 22.4648 18.707L22.8184 19.0606L23.1719 19.4141C23.5526 19.0334 23.7578 18.5388 23.7578 18H23.2578ZM22.8184 19.0606L22.4648 18.707C22.2714 18.9004 22.0311 19 21.7578 19V19.5V20C22.2966 20 22.7912 19.7949 23.1719 19.4141L22.8184 19.0606ZM21.7578 19.5V19C18.7751 19 16.7264 19.3 15.2521 19.815C13.7596 20.3363 12.8696 21.0735 12.2033 21.9064L12.5938 22.2188L12.9842 22.5311C13.539 21.8376 14.2755 21.2154 15.5819 20.759C16.9067 20.2962 18.8295 20 21.7578 20V19.5ZM12.5938 22.2188L12.2033 21.9064L11.6174 22.6388L12.0078 22.9512L12.3982 23.2635L12.9842 22.5311L12.5938 22.2188ZM12.0078 22.9512L12.3985 22.6391L11.8125 21.9057L11.4219 22.2178L11.0312 22.5299L11.6172 23.2633L12.0078 22.9512ZM11.4219 22.2178L11.8124 21.9056C11.15 21.0768 10.2596 20.3401 8.76643 19.8179C7.29116 19.3021 5.24049 19 2.25782 19L2.25782 19.5V20C5.18539 20 7.11035 20.2982 8.43635 20.7619C9.74444 21.2193 10.481 21.8415 11.0313 22.53L11.4219 22.2178ZM2.25782 19.5L2.25782 19C1.95284 19 1.69541 18.873 1.5184 18.6651L1.1377 18.9893L0.756999 19.3134C1.12287 19.7431 1.65801 20 2.25781 20L2.25782 19.5ZM1.1377 18.9893L1.51854 18.6653C1.34529 18.4616 1.25782 18.1912 1.25782 17.9092H0.757816H0.257816C0.257816 18.3905 0.40674 18.9017 0.756857 19.3132L1.1377 18.9893ZM0.757816 17.9092H1.25782V4.50001H0.757816H0.257816V17.9092H0.757816ZM0.757816 4.50001L1.25781 4.49905C1.25729 4.22582 1.35653 3.98534 1.54983 3.79206L1.19629 3.43849L0.842753 3.08492C0.461282 3.46636 0.256778 3.96206 0.257816 4.50097L0.757816 4.50001ZM1.19629 3.43849L1.53327 3.80787L1.6446 3.70631L1.30762 3.33693L0.970639 2.96754L0.859311 3.0691L1.19629 3.43849ZM1.30762 3.33693L1.62586 3.72257C1.8033 3.57615 2.01702 3.49911 2.25888 3.50001L2.26075 3.00001L2.26261 2.50001C1.79157 2.49826 1.35032 2.65343 0.989382 2.95128L1.30762 3.33693ZM2.26075 3.00001L2.25483 3.49998L2.83296 3.50681L2.83887 3.00685L2.84478 2.50688L2.26666 2.50005L2.26075 3.00001ZM2.83887 3.00685L2.82882 3.50675C5.64166 3.56328 7.75216 3.94883 9.27177 4.6748L9.48731 4.22364L9.70284 3.77249C7.99737 2.95771 5.7227 2.56471 2.84892 2.50695L2.83887 3.00685ZM9.48731 4.22364L9.27176 4.6748C10.3184 5.17488 11.0742 5.83315 11.5869 6.63309L12.0078 6.36329L12.4288 6.0935C11.8028 5.11682 10.8949 4.342 9.70286 3.77249L9.48731 4.22364ZM12.0078 6.36329L12.4288 6.63309C12.9415 5.83315 13.6972 5.17488 14.7439 4.6748L14.5283 4.22364L14.3128 3.77249C13.1208 4.342 12.2128 5.11682 11.5869 6.0935L12.0078 6.36329ZM14.5283 4.22364L14.7439 4.6748C16.3658 3.89993 18.6596 3.51389 21.7571 3.50001L21.7549 3.00001L21.7526 2.50002C18.5984 2.51416 16.131 2.90384 14.3128 3.77249L14.5283 4.22364ZM21.7549 3.00001L21.7323 3.4995L21.8837 3.50634L21.9063 3.00685L21.9288 2.50736L21.7774 2.50052L21.7549 3.00001Z" fill="#007A3D"/>
</svg>
