<svg width="24" height="24" viewBox="0 0 24 24" fill="none" xmlns="http://www.w3.org/2000/svg">
<path d="M21.874 2.50585C22.1639 2.53232 22.4239 2.6544 22.6348 2.86522C22.8753 3.1057 23.0008 3.41008 23 3.74999V17.25C23 17.5897 22.874 17.8936 22.6338 18.1338C22.3936 18.374 22.0897 18.5 21.75 18.5C15.8092 18.5 13.682 19.6982 12.3906 21.3125L12 21.8008L11.6094 21.3125C10.3263 19.7071 8.19051 18.5 2.25 18.5C1.87123 18.5 1.54448 18.3404 1.32032 18.0771C1.1027 17.8213 1 17.4908 1 17.1592V3.74999C0.999199 3.41011 1.12473 3.1057 1.36524 2.86522C1.60616 2.62431 1.91131 2.49872 2.25196 2.49999L2.82715 2.50682C5.65391 2.56375 7.80557 2.95077 9.37207 3.69921C10.5992 4.28553 11.4599 5.09245 12 6.10936C12.5401 5.09245 13.4008 4.28553 14.6279 3.69921C16.299 2.90082 18.6361 2.51394 21.7481 2.49999L21.874 2.50585ZM21.752 3.49999C18.6967 3.51371 16.5332 3.89702 15.0586 4.60155C13.6339 5.28236 12.8447 6.26572 12.5 7.56639V7.49999H11.5V7.56639C11.1553 6.26572 10.3661 5.28236 8.94141 4.60155C7.55899 3.94106 5.57103 3.56279 2.81055 3.50682L2.24805 3.49999C2.17392 3.49973 2.1247 3.51983 2.07227 3.57225C2.01989 3.62463 1.99974 3.67387 2 3.74803V17.1592C2 17.2905 2.04068 17.3811 2.08204 17.4297C2.11707 17.4707 2.16583 17.5 2.25 17.5C7.28224 17.5 9.87103 18.349 11.5 19.7578V21H12.5V19.7578C14.1317 18.3442 16.7145 17.5 21.75 17.5C21.8245 17.5 21.8741 17.4794 21.9268 17.4267L21.96 17.3877C21.9882 17.3479 22 17.306 22 17.25V3.74803L21.9961 3.69628C21.988 3.64893 21.9669 3.61145 21.9277 3.57225C21.8885 3.53305 21.8511 3.51198 21.8037 3.50389L21.752 3.49999ZM12.5 19.7578C12.3228 19.9114 12.1567 20.0716 12 20.2383C11.8434 20.0718 11.6775 19.9113 11.5 19.7578V7.56639C11.505 7.58528 11.5108 7.60401 11.5156 7.62303H12.4844C12.4892 7.60401 12.495 7.58528 12.5 7.56639V19.7578Z" fill="#6E6E6E"/>
<path d="M21.874 2.50585L21.9195 2.00792L21.9084 2.0069L21.8973 2.00639L21.874 2.50585ZM22.6348 2.86522L22.9883 2.51167L22.9883 2.51166L22.6348 2.86522ZM23 3.74999L22.5 3.7488V3.74999H23ZM22.6338 18.1338L22.9873 18.4873L22.9874 18.4873L22.6338 18.1338ZM21.75 18.5V18V18.5ZM12.3906 21.3125L12.7811 21.6248L12.7811 21.6248L12.3906 21.3125ZM12 21.8008L11.6096 22.1131L12 22.6012L12.3904 22.1131L12 21.8008ZM11.6094 21.3125L11.2188 21.6246L11.2189 21.6248L11.6094 21.3125ZM2.25 18.5L2.25 19H2.25V18.5ZM1.32032 18.0771L0.939476 18.4011L0.939617 18.4013L1.32032 18.0771ZM1 3.74999H1.50001L1.5 3.7488L1 3.74999ZM1.36524 2.86522L1.71877 3.21879L1.71879 3.21878L1.36524 2.86522ZM2.25196 2.49999L2.2579 2.00001L2.25382 1.99999L2.25196 2.49999ZM2.82715 2.50682L2.83722 2.00691L2.83309 2.00686L2.82715 2.50682ZM9.37207 3.69921L9.58763 3.24806L9.58762 3.24805L9.37207 3.69921ZM12 6.10936L11.5584 6.34388L12 7.17538L12.4416 6.34388L12 6.10936ZM14.6279 3.69921L14.4124 3.24805L14.4124 3.24806L14.6279 3.69921ZM21.7481 2.49999L21.7713 2.00053L21.7586 1.99993L21.7458 1.99999L21.7481 2.49999ZM21.752 3.49999L21.7896 3.0014L21.7697 2.9999L21.7497 2.99999L21.752 3.49999ZM15.0586 4.60155L14.843 4.1504L14.843 4.15041L15.0586 4.60155ZM12.5 7.49999H13V6.99999H12.5V7.49999ZM11.5 7.49999V6.99999H11V7.49999H11.5ZM8.94141 4.60155L9.157 4.15041L9.15696 4.1504L8.94141 4.60155ZM2.81055 3.50682L2.82069 3.00691L2.81663 3.00686L2.81055 3.50682ZM2.24805 3.49999L2.25413 3L2.24981 2.99999L2.24805 3.49999ZM2.07227 3.57225L2.4258 3.92583L2.42581 3.92582L2.07227 3.57225ZM2 3.74803H2.50001L2.5 3.74628L2 3.74803ZM2.08204 17.4297L1.70132 17.7538L1.70173 17.7543L2.08204 17.4297ZM2.25 17.5L2.25 18H2.25V17.5ZM11.5 21H11V21.5H11.5V21ZM12.5 21V21.5H13V21H12.5ZM21.75 17.5V17V17.5ZM21.9268 17.4267L22.2803 17.7803L22.2946 17.766L22.3077 17.7506L21.9268 17.4267ZM21.96 17.3877L22.3409 17.7115L22.3551 17.6948L22.3678 17.6769L21.96 17.3877ZM22 3.74803H22.5V3.72919L22.4986 3.7104L22 3.74803ZM21.9961 3.69628L22.4947 3.65865L22.4929 3.63521L22.489 3.61204L21.9961 3.69628ZM21.9277 3.57225L22.2813 3.2187L22.2813 3.21868L21.9277 3.57225ZM21.8037 3.50389L21.888 3.01104L21.8648 3.00708L21.8413 3.00531L21.8037 3.50389ZM12 20.2383L11.6359 20.5809L12.0001 20.9679L12.3642 20.5808L12 20.2383ZM11.5156 7.62303L11.0309 7.74582L11.1265 8.12303H11.5156V7.62303ZM12.4844 7.62303V8.12303H12.8735L12.9691 7.74582L12.4844 7.62303ZM21.874 2.50585L21.8286 3.00377C22.0003 3.01946 22.1518 3.08935 22.2812 3.21878L22.6348 2.86522L22.9883 2.51166C22.6961 2.21945 22.3276 2.04518 21.9195 2.00792L21.874 2.50585ZM22.6348 2.86522L22.2812 3.21878C22.4276 3.36515 22.5005 3.54185 22.5 3.7488L23 3.74999L23.5 3.75117C23.5011 3.27831 23.3229 2.84625 22.9883 2.51167L22.6348 2.86522ZM23 3.74999H22.5V17.25H23H23.5V3.74999H23ZM23 17.25H22.5C22.5 17.457 22.4268 17.6337 22.2802 17.7802L22.6338 18.1338L22.9874 18.4873C23.3212 18.1535 23.5 17.7225 23.5 17.25H23ZM22.6338 18.1338L22.2802 17.7802C22.1337 17.9268 21.957 18 21.75 18V18.5V19C22.2225 19 22.6535 18.8212 22.9873 18.4873L22.6338 18.1338ZM21.75 18.5V18C18.7523 18 16.6725 18.3014 15.162 18.8288C13.6339 19.3624 12.7022 20.1226 12.0002 21.0002L12.3906 21.3125L12.7811 21.6248C13.3705 20.888 14.1481 20.242 15.4916 19.7729C16.8528 19.2977 18.8069 19 21.75 19V18.5ZM12.3906 21.3125L12.0002 21.0001L11.6096 21.4884L12 21.8008L12.3904 22.1131L12.7811 21.6248L12.3906 21.3125ZM12 21.8008L12.3904 21.4884L11.9998 21.0001L11.6094 21.3125L11.2189 21.6248L11.6096 22.1131L12 21.8008ZM11.6094 21.3125L12 21.0003C10.5765 19.2192 8.25028 18 2.25 18L2.25 18.5V19C8.13074 19 10.0762 20.195 11.2188 21.6246L11.6094 21.3125ZM2.25 18.5L2.25001 18C2.01874 18 1.83082 17.9054 1.70102 17.753L1.32032 18.0771L0.939617 18.4013C1.25814 18.7754 1.72371 19 2.25 19L2.25 18.5ZM1.32032 18.0771L1.70116 17.7532C1.57191 17.6012 1.5 17.391 1.5 17.1592H1H0.500004C0.500004 17.5905 0.633492 18.0414 0.939476 18.4011L1.32032 18.0771ZM1 17.1592H1.5V3.74999H1H0.500004V17.1592H1ZM1 3.74999L1.5 3.7488C1.49951 3.54186 1.57241 3.36514 1.71877 3.21879L1.36524 2.86522L1.0117 2.51165C0.677061 2.84626 0.498885 3.27837 0.500005 3.75117L1 3.74999ZM1.36524 2.86522L1.71879 3.21878C1.86539 3.07218 2.04256 2.99921 2.25009 2.99998L2.25196 2.49999L2.25382 1.99999C1.78005 1.99822 1.34692 2.17644 1.01169 2.51166L1.36524 2.86522ZM2.25196 2.49999L2.24602 2.99995L2.82121 3.00679L2.82715 2.50682L2.83309 2.00686L2.2579 2.00002L2.25196 2.49999ZM2.82715 2.50682L2.81708 3.00672C5.61344 3.06304 7.68299 3.44634 9.15652 4.15036L9.37207 3.69921L9.58762 3.24805C7.92815 2.4552 5.69437 2.06447 2.83722 2.00692L2.82715 2.50682ZM9.37207 3.69921L9.15652 4.15035C10.2996 4.69652 11.0747 5.4331 11.5584 6.34388L12 6.10936L12.4416 5.87484C11.8452 4.75181 10.8988 3.87454 9.58763 3.24806L9.37207 3.69921ZM12 6.10936L12.4416 6.34388C12.9253 5.43309 13.7004 4.69652 14.8435 4.15035L14.6279 3.69921L14.4124 3.24806C13.1012 3.87454 12.1548 4.75181 11.5584 5.87484L12 6.10936ZM14.6279 3.69921L14.8435 4.15036C16.4164 3.39888 18.6667 3.01381 21.7503 2.99998L21.7481 2.49999L21.7458 1.99999C18.6056 2.01407 16.1816 2.40277 14.4124 3.24805L14.6279 3.69921ZM21.7481 2.49999L21.7248 2.99945L21.8508 3.00531L21.874 2.50585L21.8973 2.00639L21.7713 2.00053L21.7481 2.49999ZM21.752 3.49999L21.7497 2.99999C18.6662 3.01384 16.4158 3.39896 14.843 4.1504L15.0586 4.60155L15.2741 5.0527C16.6506 4.39509 18.7272 4.01358 21.7542 3.99998L21.752 3.49999ZM15.0586 4.60155L14.843 4.15041C13.2936 4.89084 12.4011 5.98801 12.0167 7.4383L12.5 7.56639L12.9833 7.69449C13.2884 6.54342 13.9743 5.67388 15.2742 5.05268L15.0586 4.60155ZM12.5 7.56639H13V7.49999H12.5H12V7.56639H12.5ZM12.5 7.49999V6.99999H11.5V7.49999V7.99999H12.5V7.49999ZM11.5 7.49999H11V7.56639H11.5H12V7.49999H11.5ZM11.5 7.56639L11.9833 7.4383C11.5989 5.98801 10.7064 4.89084 9.157 4.15041L8.94141 4.60155L8.72582 5.05268C10.0258 5.67388 10.7116 6.54343 11.0167 7.69449L11.5 7.56639ZM8.94141 4.60155L9.15696 4.1504C7.68148 3.44544 5.61133 3.06351 2.82069 3.00693L2.81055 3.50682L2.80041 4.00672C5.53073 4.06208 7.4365 4.43667 8.72586 5.0527L8.94141 4.60155ZM2.81055 3.50682L2.81663 3.00686L2.25413 3.00002L2.24805 3.49999L2.24197 3.99995L2.80447 4.00679L2.81055 3.50682ZM2.24805 3.49999L2.24981 2.99999C2.16614 2.9997 2.06655 3.01096 1.96214 3.05382C1.85758 3.09675 1.77852 3.1589 1.71873 3.21868L2.07227 3.57225L2.42581 3.92582C2.41845 3.93318 2.39022 3.95907 2.3419 3.9789C2.29374 3.99868 2.25583 4.00002 2.24629 3.99998L2.24805 3.49999ZM2.07227 3.57225L1.71874 3.21867C1.65896 3.27845 1.59681 3.35749 1.55388 3.46204C1.51101 3.56643 1.49971 3.66603 1.50001 3.74979L2 3.74803L2.5 3.74628C2.50003 3.75587 2.49868 3.79378 2.47891 3.84191C2.45909 3.8902 2.4332 3.91843 2.4258 3.92583L2.07227 3.57225ZM2 3.74803H1.5V17.1592H2H2.5V3.74803H2ZM2 17.1592H1.5C1.5 17.3909 1.57181 17.6017 1.70132 17.7538L2.08204 17.4297L2.46275 17.1056C2.48746 17.1346 2.49628 17.1568 2.49892 17.1646C2.50211 17.174 2.5 17.1731 2.5 17.1592H2ZM2.08204 17.4297L1.70173 17.7543C1.83245 17.9074 2.02056 18 2.25 18L2.25 17.5L2.25001 17C2.26696 17 2.30707 17.0032 2.35634 17.0259C2.40681 17.0491 2.44185 17.0811 2.46234 17.1051L2.08204 17.4297ZM2.25 17.5V18C7.24259 18 9.68127 18.8459 11.1729 20.136L11.5 19.7578L11.8271 19.3796C10.0608 17.852 7.32189 17 2.25 17L2.25 17.5ZM11.5 19.7578H11V21H11.5H12V19.7578H11.5ZM11.5 21V21.5H12.5V21V20.5H11.5V21ZM12.5 21H13V19.7578H12.5H12V21H12.5ZM12.5 19.7578L12.8274 20.1357C14.3215 18.8413 16.7537 18 21.75 18V17.5V17C16.6753 17 13.9419 17.8471 12.1726 19.3799L12.5 19.7578ZM21.75 17.5V18C21.8344 18 21.934 17.9881 22.038 17.945C22.142 17.9019 22.2207 17.8399 22.2803 17.7803L21.9268 17.4267L21.5732 17.0732C21.5801 17.0663 21.6077 17.0409 21.6551 17.0212C21.7025 17.0016 21.7401 17 21.75 17V17.5ZM21.9268 17.4267L22.3077 17.7506L22.3409 17.7115L21.96 17.3877L21.579 17.0639L21.5458 17.1029L21.9268 17.4267ZM21.96 17.3877L22.3678 17.6769C22.4665 17.5377 22.5 17.3898 22.5 17.25H22H21.5C21.5 17.2429 21.5007 17.2189 21.5102 17.1862C21.5203 17.1514 21.5359 17.1213 21.5521 17.0985L21.96 17.3877ZM22 17.25H22.5V3.74803H22H21.5V17.25H22ZM22 3.74803L22.4986 3.7104L22.4947 3.65865L21.9961 3.69628L21.4975 3.7339L21.5014 3.78566L22 3.74803ZM21.9961 3.69628L22.489 3.61204C22.4602 3.44399 22.379 3.31644 22.2813 3.2187L21.9277 3.57225L21.5742 3.92581C21.5692 3.92079 21.5527 3.90331 21.5362 3.87342C21.5185 3.84161 21.5081 3.80895 21.5032 3.78051L21.9961 3.69628ZM21.9277 3.57225L22.2813 3.21868C22.1835 3.12096 22.056 3.03976 21.888 3.01104L21.8037 3.50389L21.7195 3.99675C21.691 3.99188 21.6584 3.98144 21.6266 3.96383C21.5967 3.94728 21.5792 3.93083 21.5742 3.92582L21.9277 3.57225ZM21.8037 3.50389L21.8413 3.00531L21.7896 3.0014L21.752 3.49999L21.7143 3.99857L21.7661 4.00248L21.8037 3.50389ZM12.5 19.7578L12.1726 19.3799C11.982 19.5451 11.8037 19.7172 11.6358 19.8957L12 20.2383L12.3642 20.5808C12.5098 20.4261 12.6636 20.2776 12.8274 20.1357L12.5 19.7578ZM12 20.2383L12.3641 19.8956C12.1967 19.7177 12.0185 19.5452 11.8271 19.3796L11.5 19.7578L11.1729 20.136C11.3365 20.2775 11.4901 20.426 11.6359 20.5809L12 20.2383ZM11.5 19.7578H12V7.56639H11.5H11V19.7578H11.5ZM11.5 7.56639L11.0167 7.69449C11.0337 7.75872 11.0223 7.71152 11.0309 7.74582L11.5156 7.62303L12.0003 7.50025C11.996 7.48307 11.9915 7.4675 11.9888 7.45795C11.9856 7.4464 11.9844 7.44232 11.9833 7.4383L11.5 7.56639ZM11.5156 7.62303V8.12303H12.4844V7.62303V7.12303H11.5156V7.62303ZM12.4844 7.62303L12.9691 7.74582C12.9778 7.71152 12.9663 7.75872 12.9833 7.69449L12.5 7.56639L12.0167 7.4383C12.0156 7.44232 12.0145 7.4464 12.0112 7.45795C12.0085 7.4675 12.004 7.48307 11.9997 7.50025L12.4844 7.62303ZM12.5 7.56639H12V19.7578H12.5H13V7.56639H12.5Z" fill="#6E6E6E"/>
</svg>
