<svg width="25" height="24" viewBox="0 0 25 24" fill="none" xmlns="http://www.w3.org/2000/svg">
<mask id="mask0_0_2208" style="mask-type:luminance" maskUnits="userSpaceOnUse" x="0" y="0" width="25" height="24">
<path fill-rule="evenodd" clip-rule="evenodd" d="M24.1484 0V24H0.148438V0H24.1484Z" fill="white"/>
</mask>
<g mask="url(#mask0_0_2208)">
<mask id="mask1_0_2208" style="mask-type:luminance" maskUnits="userSpaceOnUse" x="0" y="0" width="25" height="24">
<path fill-rule="evenodd" clip-rule="evenodd" d="M24.1484 0V24H0.148438V0H24.1484Z" fill="white"/>
</mask>
<g mask="url(#mask1_0_2208)">
<path d="M3.89844 9.9375V21C3.89844 21.2071 3.97166 21.3839 4.1181 21.5303C4.26456 21.6768 4.44134 21.75 4.64845 21.75H9.14844V15.375C9.14844 15.0643 9.25826 14.7992 9.47795 14.5795C9.69761 14.3598 9.96278 14.25 10.2734 14.25H14.0234C14.3341 14.25 14.5993 14.3598 14.8189 14.5795C15.0386 14.7992 15.1484 15.0643 15.1484 15.375V21.75H19.6484C19.8555 21.75 20.0323 21.6768 20.1788 21.5303C20.3252 21.3839 20.3984 21.2071 20.3984 21V9.9375" stroke="#6E6E6E" stroke-width="1.5" stroke-linecap="round" stroke-linejoin="round"/>
<path d="M12.6589 2.4375L12.1143 2.9532L12.127 2.96656L12.1403 2.97928L12.6589 2.4375ZM11.638 2.4375L12.1566 2.97928L12.169 2.96741L12.1808 2.95498L11.638 2.4375ZM18.8984 3H19.6484V2.25H18.8984V3ZM16.6484 3V2.25H15.8984V3H16.6484ZM22.6484 12L23.1671 11.4582L13.1775 1.89572L12.6589 2.4375L12.1403 2.97928L22.1298 12.5418L22.6484 12ZM12.6589 2.4375L13.2035 1.9218C12.8987 1.59996 12.4743 1.5014 12.1514 1.50082C11.8275 1.50024 11.4023 1.59777 11.0951 1.92002L11.638 2.4375L12.1808 2.95498C12.161 2.9758 12.1432 2.98846 12.1319 2.99541C12.1206 3.00231 12.1138 3.00468 12.1134 3.00483C12.1129 3.00502 12.1161 3.00385 12.1232 3.00271C12.1303 3.00158 12.139 3.0008 12.1487 3.00082C12.1584 3.00084 12.1671 3.00165 12.1741 3.0028C12.1812 3.00397 12.1845 3.00515 12.1839 3.00494C12.1834 3.00476 12.1765 3.00231 12.1649 2.99519C12.1533 2.98804 12.1349 2.97491 12.1143 2.9532L12.6589 2.4375ZM11.638 2.4375L11.1193 1.89572L1.12981 11.4582L1.64844 12L2.16706 12.5418L12.1566 2.97928L11.638 2.4375ZM18.8984 8.39062H19.6484V3H18.8984H18.1484V8.39062H18.8984ZM18.8984 3V2.25H16.6484V3V3.75H18.8984V3ZM16.6484 3H15.8984V6.23438H16.6484H17.3984V3H16.6484Z" fill="#6E6E6E"/>
</g>
</g>
</svg>
