<svg width="25" height="24" viewBox="0 0 25 24" fill="none" xmlns="http://www.w3.org/2000/svg">
<mask id="mask0_18_1095" style="mask-type:luminance" maskUnits="userSpaceOnUse" x="0" y="0" width="25" height="24">
<path fill-rule="evenodd" clip-rule="evenodd" d="M24.3984 0V24H0.398438V0H24.3984Z" fill="white"/>
</mask>
<g mask="url(#mask0_18_1095)">
<path fill-rule="evenodd" clip-rule="evenodd" d="M4.14844 9.9375V21C4.14844 21.2071 4.22166 21.3839 4.3681 21.5303C4.51456 21.6768 4.69134 21.75 4.89845 21.75H9.39844V15.375C9.39844 15.0643 9.50826 14.7992 9.72795 14.5795C9.94761 14.3598 10.2128 14.25 10.5234 14.25H14.2734C14.5841 14.25 14.8493 14.3598 15.0689 14.5795C15.2886 14.7992 15.3984 15.0643 15.3984 15.375V21.75H19.8984C20.1055 21.75 20.2823 21.6768 20.4288 21.5303C20.5752 21.3839 20.6484 21.2071 20.6484 21V9.9375" fill="#007A3D"/>
<path d="M4.14844 9.9375V21C4.14844 21.2071 4.22166 21.3839 4.3681 21.5303C4.51456 21.6768 4.69134 21.75 4.89845 21.75H9.39844V15.375C9.39844 15.0643 9.50826 14.7992 9.72795 14.5795C9.94761 14.3598 10.2128 14.25 10.5234 14.25H14.2734C14.5841 14.25 14.8493 14.3598 15.0689 14.5795C15.2886 14.7992 15.3984 15.0643 15.3984 15.375V21.75H19.8984C20.1055 21.75 20.2823 21.6768 20.4288 21.5303C20.5752 21.3839 20.6484 21.2071 20.6484 21V9.9375" stroke="#007A3D" stroke-width="1.5" stroke-linecap="round" stroke-linejoin="round"/>
<path fill-rule="evenodd" clip-rule="evenodd" d="M22.8984 12L12.9089 2.43753C12.6745 2.19004 12.1266 2.18722 11.888 2.43753L1.89844 12M19.1484 8.39066V3.00003H16.8984V6.23441" fill="#007A3D"/>
<path d="M12.9089 2.43753L12.3643 2.95324L12.377 2.9666L12.3903 2.97932L12.9089 2.43753ZM11.888 2.43753L12.4066 2.97932L12.419 2.96744L12.4308 2.95502L11.888 2.43753ZM19.1484 3.00003H19.8984V2.25003H19.1484V3.00003ZM16.8984 3.00003V2.25003H16.1484V3.00003H16.8984ZM22.8984 12L23.4171 11.4582L13.4275 1.89575L12.9089 2.43753L12.3903 2.97932L22.3798 12.5418L22.8984 12ZM12.9089 2.43753L13.4535 1.92183C13.1487 1.6 12.7243 1.50144 12.4014 1.50086C12.0775 1.50028 11.6523 1.59781 11.3451 1.92005L11.888 2.43753L12.4308 2.95502C12.411 2.97584 12.3932 2.98849 12.3819 2.99545C12.3706 3.00234 12.3638 3.00471 12.3634 3.00486C12.3629 3.00505 12.3661 3.00389 12.3732 3.00274C12.3803 3.00161 12.389 3.00084 12.3987 3.00085C12.4084 3.00087 12.4171 3.00168 12.4241 3.00284C12.4312 3.004 12.4345 3.00518 12.4339 3.00497C12.4334 3.0048 12.4265 3.00234 12.4149 2.99523C12.4033 2.98807 12.3849 2.97494 12.3643 2.95324L12.9089 2.43753ZM11.888 2.43753L11.3693 1.89575L1.37981 11.4582L1.89844 12L2.41706 12.5418L12.4066 2.97932L11.888 2.43753ZM19.1484 8.39066H19.8984V3.00003H19.1484H18.3984V8.39066H19.1484ZM19.1484 3.00003V2.25003H16.8984V3.00003V3.75003H19.1484V3.00003ZM16.8984 3.00003H16.1484V6.23441H16.8984H17.6484V3.00003H16.8984Z" fill="#007A3D"/>
</g>
</svg>
