<svg width="42" height="19" viewBox="0 0 42 19" fill="none" xmlns="http://www.w3.org/2000/svg">
<mask id="path-1-inside-1_18_1153" fill="white">
<path fill-rule="evenodd" clip-rule="evenodd" d="M32.2413 3.87964C31.5907 3.29412 30.8054 3.0009 29.8854 3H27.3854V2.25C27.3846 1.62895 27.1403 1.09884 26.6524 0.659695C26.1644 0.220547 25.5754 0.0006435 24.8854 0H16.552C15.862 0.0006435 15.273 0.220547 14.7851 0.659695C14.2971 1.09884 14.0528 1.62895 14.0521 2.25V3H11.5521C10.632 3.0009 9.84669 3.29412 9.19612 3.87964C8.54555 4.46516 8.21975 5.17195 8.21875 6V8.25H33.2187V6C33.2177 5.17195 32.8919 4.46516 32.2413 3.87964ZM24.5192 10.4205C24.2752 10.6402 23.9805 10.75 23.6354 10.75H17.802C17.4569 10.75 17.1622 10.6402 16.9182 10.4205C16.6741 10.2008 16.552 9.93566 16.552 9.625V9.4375C16.552 9.38572 16.5317 9.34153 16.491 9.30491C16.4503 9.2683 16.4012 9.25 16.3437 9.25H8.21875V16C8.21875 16.8284 8.5442 17.5355 9.19505 18.1213C9.84592 18.7071 10.6316 19 11.5521 19H29.8854C30.8058 19 31.5915 18.7071 32.2424 18.1213C32.8932 17.5355 33.2187 16.8284 33.2187 16V9.25H25.0937C25.0362 9.25 24.9871 9.2683 24.9464 9.30492C24.9057 9.34153 24.8854 9.38572 24.8854 9.4375V9.625C24.8854 9.93566 24.7633 10.2008 24.5192 10.4205Z"/>
</mask>
<path d="M32.2413 3.87964L33.2448 2.76471L33.2447 2.7647L32.2413 3.87964ZM29.8854 3L29.8868 1.5H29.8854V3ZM27.3854 3H25.8854V4.5H27.3854V3ZM27.3854 2.25H28.8854L28.8854 2.24825L27.3854 2.25ZM24.8854 0L24.8868 -1.5H24.8854V0ZM16.552 0V-1.5L16.5506 -1.5L16.552 0ZM14.0521 2.25L12.5521 2.24825V2.25H14.0521ZM14.0521 3V4.5H15.5521V3H14.0521ZM11.5521 3V1.5L11.5506 1.5L11.5521 3ZM9.19612 3.87964L8.19267 2.7647L8.19266 2.76471L9.19612 3.87964ZM8.21875 6L6.71875 5.99819V6H8.21875ZM8.21875 8.25H6.71875V9.75H8.21875V8.25ZM33.2187 8.25V9.75H34.7187V8.25H33.2187ZM33.2187 6H34.7187L34.7187 5.99819L33.2187 6ZM16.9182 10.4205L15.9147 11.5354L15.9147 11.5354L16.9182 10.4205ZM16.491 9.30491L17.4947 8.19016L17.4942 8.18972L16.491 9.30491ZM8.21875 9.25V7.75H6.71875V9.25H8.21875ZM9.19505 18.1213L8.19157 19.2362L8.1916 19.2363L9.19505 18.1213ZM32.2424 18.1213L33.2458 19.2363L33.2458 19.2362L32.2424 18.1213ZM33.2187 9.25H34.7187V7.75H33.2187V9.25ZM24.9464 9.30492L23.9431 8.18986L23.9429 8.19003L24.9464 9.30492ZM32.2413 3.87964L33.2447 2.7647C32.3041 1.9181 31.1562 1.50125 29.8868 1.5L29.8854 3L29.8839 4.5C30.4546 4.50056 30.8774 4.67014 31.2379 4.99458L32.2413 3.87964ZM29.8854 3V1.5H27.3854V3V4.5H29.8854V3ZM27.3854 3H28.8854V2.25H27.3854H25.8854V3H27.3854ZM27.3854 2.25L28.8854 2.24825C28.8841 1.17599 28.4391 0.24967 27.6558 -0.455253L26.6524 0.659695L25.6489 1.77464C25.8416 1.94801 25.8852 2.0819 25.8854 2.25175L27.3854 2.25ZM26.6524 0.659695L27.6558 -0.455253C26.8778 -1.15548 25.9262 -1.49903 24.8868 -1.5L24.8854 0L24.884 1.5C25.2247 1.50032 25.4511 1.59658 25.6489 1.77464L26.6524 0.659695ZM24.8854 0V-1.5H16.552V0V1.5H24.8854V0ZM16.552 0L16.5506 -1.5C15.5112 -1.49903 14.5597 -1.15548 13.7816 -0.455253L14.7851 0.659695L15.7885 1.77464C15.9863 1.59658 16.2128 1.50032 16.5534 1.5L16.552 0ZM14.7851 0.659695L13.7816 -0.455253C12.9984 0.249671 12.5533 1.17599 12.5521 2.24825L14.0521 2.25L15.5521 2.25175C15.5523 2.0819 15.5959 1.94801 15.7885 1.77464L14.7851 0.659695ZM14.0521 2.25H12.5521V3H14.0521H15.5521V2.25H14.0521ZM14.0521 3V1.5H11.5521V3V4.5H14.0521V3ZM11.5521 3L11.5506 1.5C10.2812 1.50125 9.13333 1.9181 8.19267 2.7647L9.19612 3.87964L10.1996 4.99458C10.5601 4.67014 10.9828 4.50056 11.5535 4.5L11.5521 3ZM9.19612 3.87964L8.19266 2.76471C7.24684 3.61597 6.7203 4.71893 6.71875 5.99819L8.21875 6L9.71875 6.00181C9.7192 5.62497 9.84426 5.31436 10.1996 4.99457L9.19612 3.87964ZM8.21875 6H6.71875V8.25H8.21875H9.71875V6H8.21875ZM8.21875 8.25V9.75H33.2187V8.25V6.75H8.21875V8.25ZM33.2187 8.25H34.7187V6H33.2187H31.7187V8.25H33.2187ZM33.2187 6L34.7187 5.99819C34.7171 4.71893 34.1906 3.61597 33.2448 2.76471L32.2413 3.87964L31.2378 4.99457C31.5932 5.31436 31.7182 5.62497 31.7187 6.00181L33.2187 6ZM24.5192 10.4205L23.5158 9.30556C23.5276 9.29494 23.5541 9.27596 23.5913 9.26211C23.6272 9.24871 23.6466 9.25 23.6354 9.25V10.75V12.25C24.3303 12.25 24.9881 12.0165 25.5227 11.5354L24.5192 10.4205ZM23.6354 10.75V9.25H17.802V10.75V12.25H23.6354V10.75ZM17.802 10.75V9.25C17.7909 9.25 17.8102 9.24871 17.8462 9.26211C17.8833 9.27596 17.9098 9.29494 17.9216 9.30556L16.9182 10.4205L15.9147 11.5354C16.4493 12.0165 17.1071 12.25 17.802 12.25V10.75ZM16.9182 10.4205L17.9216 9.30558C17.9323 9.31516 17.9719 9.35515 18.0062 9.42972C18.0414 9.5063 18.052 9.57798 18.052 9.625H16.552H15.052C15.052 10.3876 15.375 11.0496 15.9147 11.5354L16.9182 10.4205ZM16.552 9.625H18.052V9.4375H16.552H15.052V9.625H16.552ZM16.552 9.4375H18.052C18.052 8.93409 17.8311 8.49301 17.4947 8.19016L16.491 9.30491L15.4874 10.4197C15.3751 10.3185 15.2592 10.1775 15.1741 9.99242C15.088 9.80534 15.052 9.61377 15.052 9.4375H16.552ZM16.491 9.30491L17.4942 8.18972C17.1632 7.89192 16.7511 7.75 16.3437 7.75V9.25V10.75C16.2111 10.75 16.0585 10.7284 15.8998 10.6693C15.74 10.6097 15.6013 10.5221 15.4879 10.4201L16.491 9.30491ZM16.3437 9.25V7.75H8.21875V9.25V10.75H16.3437V9.25ZM8.21875 9.25H6.71875V16H8.21875H9.71875V9.25H8.21875ZM8.21875 16H6.71875C6.71875 17.2803 7.24505 18.3843 8.19157 19.2362L9.19505 18.1213L10.1985 17.0064C9.84334 16.6867 9.71875 16.3765 9.71875 16H8.21875ZM9.19505 18.1213L8.1916 19.2363C9.13296 20.0835 10.2818 20.5 11.5521 20.5V19V17.5C10.9814 17.5 10.5589 17.3307 10.1985 17.0064L9.19505 18.1213ZM11.5521 19V20.5H29.8854V19V17.5H11.5521V19ZM29.8854 19V20.5C31.1556 20.5 32.3045 20.0835 33.2458 19.2363L32.2424 18.1213L31.2389 17.0064C30.8785 17.3307 30.456 17.5 29.8854 17.5V19ZM32.2424 18.1213L33.2458 19.2362C34.1924 18.3843 34.7187 17.2803 34.7187 16H33.2187H31.7187C31.7187 16.3765 31.5941 16.6867 31.2389 17.0064L32.2424 18.1213ZM33.2187 16H34.7187V9.25H33.2187H31.7187V16H33.2187ZM33.2187 9.25V7.75H25.0937V9.25V10.75H33.2187V9.25ZM25.0937 9.25V7.75C24.6863 7.75 24.2742 7.89194 23.9431 8.18986L24.9464 9.30492L25.9497 10.42C25.8363 10.522 25.6976 10.6096 25.5377 10.6692C25.379 10.7284 25.2263 10.75 25.0937 10.75V9.25ZM24.9464 9.30492L23.9429 8.19003C23.6063 8.49295 23.3854 8.93411 23.3854 9.4375H24.8854H26.3854C26.3854 9.61377 26.3494 9.80535 26.2633 9.99246C26.1782 10.1776 26.0623 10.3186 25.9499 10.4198L24.9464 9.30492ZM24.8854 9.4375H23.3854V9.625H24.8854H26.3854V9.4375H24.8854ZM24.8854 9.625H23.3854C23.3854 9.57798 23.396 9.5063 23.4312 9.42972C23.4656 9.35515 23.5051 9.31516 23.5158 9.30558L24.5192 10.4205L25.5227 11.5354C26.0624 11.0496 26.3854 10.3876 26.3854 9.625H24.8854Z" fill="#6E6E6E" mask="url(#path-1-inside-1_18_1153)"/>
</svg>
