<svg width="44" height="20" viewBox="0 0 44 20" fill="none" xmlns="http://www.w3.org/2000/svg">
<path fill-rule="evenodd" clip-rule="evenodd" d="M32.0507 3.87964C31.4189 3.29412 30.6561 3.0009 29.7625 3H27.3344V2.25C27.3337 1.62895 27.0964 1.09884 26.6225 0.659695C26.1485 0.220547 25.5765 0.0006435 24.9063 0H16.8125C16.1423 0.0006435 15.5702 0.220547 15.0963 0.659695C14.6224 1.09884 14.3851 1.62895 14.3844 2.25V3H11.9562C11.0626 3.0009 10.2999 3.29412 9.66803 3.87964C9.03615 4.46516 8.71972 5.17195 8.71875 6V8.25H33V6C32.999 5.17195 32.6826 4.46516 32.0507 3.87964ZM16.0031 3V2.25C16.0031 2.04289 16.0821 1.86612 16.2401 1.71967C16.3982 1.57322 16.5889 1.5 16.8125 1.5H24.9062C25.1297 1.5 25.3205 1.57322 25.4785 1.71967C25.6366 1.86612 25.7156 2.04289 25.7156 2.25V3H16.0031ZM24.5507 10.9205C24.3136 11.1402 24.0274 11.25 23.6922 11.25H18.0266C17.6913 11.25 17.4051 11.1402 17.1681 10.9205C16.931 10.7008 16.8125 10.4357 16.8125 10.125V9.9375C16.8125 9.88572 16.7928 9.84153 16.7532 9.80491C16.7137 9.7683 16.666 9.75 16.6102 9.75H8.71875V16.5C8.71875 17.3284 9.03484 18.0355 9.66698 18.6213C10.2991 19.2071 11.0622 19.5 11.9562 19.5H29.7625C30.6565 19.5 31.4196 19.2071 32.0518 18.6213C32.6839 18.0355 33 17.3284 33 16.5V9.75H25.1086C25.0527 9.75 25.005 9.7683 24.9655 9.80492C24.926 9.84153 24.9063 9.88572 24.9063 9.9375V10.125C24.9063 10.4357 24.7877 10.7008 24.5507 10.9205Z" fill="#007A3D"/>
</svg>
