<svg width="19" height="20" viewBox="0 0 19 20" fill="none" xmlns="http://www.w3.org/2000/svg">
<mask id="mask0_18_1071" style="mask-type:luminance" maskUnits="userSpaceOnUse" x="0" y="0" width="19" height="20">
<path fill-rule="evenodd" clip-rule="evenodd" d="M18.2969 0V20H0.40625V0H18.2969Z" fill="white"/>
</mask>
<g mask="url(#mask0_18_1071)">
<mask id="mask1_18_1071" style="mask-type:luminance" maskUnits="userSpaceOnUse" x="0" y="0" width="19" height="20">
<path fill-rule="evenodd" clip-rule="evenodd" d="M18.2969 0V20H0.40625V0H18.2969Z" fill="white"/>
</mask>
<g mask="url(#mask1_18_1071)">
<path fill-rule="evenodd" clip-rule="evenodd" d="M5.60156 4.21875C5.60156 3.96094 5.8125 3.75 6.07031 3.75H7.63281C7.89062 3.75 8.10156 3.96094 8.10156 4.21875V5.78125C8.10156 6.03906 7.89062 6.25 7.63281 6.25H6.07031C5.8125 6.25 5.60156 6.03906 5.60156 5.78125V4.21875ZM12.6328 6.25C12.8906 6.25 13.1016 6.03906 13.1016 5.78125V4.21875C13.1016 3.96094 12.8906 3.75 12.6328 3.75H11.0703C10.8125 3.75 10.6016 3.96094 10.6016 4.21875V5.78125C10.6016 6.03906 10.8125 6.25 11.0703 6.25H12.6328ZM7.63281 10C7.89062 10 8.10156 9.78906 8.10156 9.53125V7.96875C8.10156 7.71094 7.89062 7.5 7.63281 7.5H6.07031C5.8125 7.5 5.60156 7.71094 5.60156 7.96875V9.53125C5.60156 9.78906 5.8125 10 6.07031 10H7.63281ZM12.6328 10C12.8906 10 13.1016 9.78906 13.1016 9.53125V7.96875C13.1016 7.71094 12.8906 7.5 12.6328 7.5H11.0703C10.8125 7.5 10.6016 7.71094 10.6016 7.96875V9.53125C10.6016 9.78906 10.8125 10 11.0703 10H12.6328ZM8.10156 11.7188C8.10156 11.4609 7.89062 11.25 7.63281 11.25H6.07031C5.8125 11.25 5.60156 11.4609 5.60156 11.7188V13.2812C5.60156 13.5391 5.8125 13.75 6.07031 13.75H7.63281C7.89062 13.75 8.10156 13.5391 8.10156 13.2812V11.7188ZM12.6328 13.75C12.8906 13.75 13.1016 13.5391 13.1016 13.2812V11.7188C13.1016 11.4609 12.8906 11.25 12.6328 11.25H11.0703C10.8125 11.25 10.6016 11.4609 10.6016 11.7188V13.2812C10.6016 13.5391 10.8125 13.75 11.0703 13.75H12.6328ZM18.1016 20H0.601562V18.5938C0.601562 18.3359 0.812507 18.125 1.07032 18.125H1.83202V0.9375C1.83202 0.41796 2.24999 0 2.76953 0H15.9336C16.4531 0 16.8711 0.41796 16.8711 0.9375V18.125H17.6328C17.8906 18.125 18.1016 18.3359 18.1016 18.5938V20ZM8.10156 18.0859V15.4687C8.10156 15.2109 8.31249 15 8.57031 15H10.1328C10.3906 15 10.6016 15.2109 10.6016 15.4687V18.0859H14.9961V1.91407L3.72656 1.875L3.70703 18.0859H8.10156Z" fill="#6E6E6E"/>
</g>
</g>
</svg>
