<svg width="35" height="20" viewBox="0 0 35 20" fill="none" xmlns="http://www.w3.org/2000/svg">
<path fill-rule="evenodd" clip-rule="evenodd" d="M13.6016 4.21875C13.6016 3.96094 13.8125 3.75 14.0703 3.75H15.6328C15.8906 3.75 16.1016 3.96094 16.1016 4.21875V5.78125C16.1016 6.03906 15.8906 6.25 15.6328 6.25H14.0703C13.8125 6.25 13.6016 6.03906 13.6016 5.78125V4.21875ZM20.6328 6.25C20.8906 6.25 21.1016 6.03906 21.1016 5.78125V4.21875C21.1016 3.96094 20.8906 3.75 20.6328 3.75H19.0703C18.8125 3.75 18.6016 3.96094 18.6016 4.21875V5.78125C18.6016 6.03906 18.8125 6.25 19.0703 6.25H20.6328ZM15.6328 10C15.8906 10 16.1016 9.78906 16.1016 9.53125V7.96875C16.1016 7.71094 15.8906 7.5 15.6328 7.5H14.0703C13.8125 7.5 13.6016 7.71094 13.6016 7.96875V9.53125C13.6016 9.78906 13.8125 10 14.0703 10H15.6328ZM20.6328 10C20.8906 10 21.1016 9.78906 21.1016 9.53125V7.96875C21.1016 7.71094 20.8906 7.5 20.6328 7.5H19.0703C18.8125 7.5 18.6016 7.71094 18.6016 7.96875V9.53125C18.6016 9.78906 18.8125 10 19.0703 10H20.6328ZM16.1016 11.7188C16.1016 11.4609 15.8906 11.25 15.6328 11.25H14.0703C13.8125 11.25 13.6016 11.4609 13.6016 11.7188V13.2812C13.6016 13.5391 13.8125 13.75 14.0703 13.75H15.6328C15.8906 13.75 16.1016 13.5391 16.1016 13.2812V11.7188ZM20.6328 13.75C20.8906 13.75 21.1016 13.5391 21.1016 13.2812V11.7188C21.1016 11.4609 20.8906 11.25 20.6328 11.25H19.0703C18.8125 11.25 18.6016 11.4609 18.6016 11.7188V13.2812C18.6016 13.5391 18.8125 13.75 19.0703 13.75H20.6328ZM26.1016 20H8.60156V18.5938C8.60156 18.3359 8.81251 18.125 9.07032 18.125H9.83202V0.9375C9.83202 0.41796 10.25 0 10.7695 0H23.9336C24.4531 0 24.8711 0.41796 24.8711 0.9375V18.125H25.6328C25.8906 18.125 26.1016 18.3359 26.1016 18.5938V20ZM16.1016 18.0859V15.4687C16.1016 15.2109 16.3125 15 16.5703 15H18.1328C18.3906 15 18.6016 15.2109 18.6016 15.4687V18.0859H22.9961L11.5312 18.125L11.707 18.0859H16.1016Z" fill="#007A3D"/>
</svg>
