<svg width="25" height="24" viewBox="0 0 25 24" fill="none" xmlns="http://www.w3.org/2000/svg">
<path fill-rule="evenodd" clip-rule="evenodd" d="M14.7969 15V17H7.79688V15H14.7969ZM17.7969 11V13H7.79688V11H17.7969ZM17.7969 7V9H7.79688V7H17.7969ZM15.6169 3C15.1969 1.84 14.0969 1 12.7969 1C11.4969 1 10.3969 1.84 9.97687 3H5.79687C5.65687 3 5.52687 3.01 5.39688 3.04C5.07362 3.10782 4.78468 3.24694 4.53007 3.45734C4.27546 3.66776 4.08439 3.9253 3.95688 4.23C3.85687 4.46 3.79688 4.72 3.79688 5V19C3.79688 19.27 3.85687 19.54 3.95688 19.78C4.05687 20.02 4.20688 20.23 4.38688 20.42C4.65688 20.69 5.00687 20.89 5.39688 20.97C5.52687 20.99 5.65687 21 5.79687 21H19.7969C20.8969 21 21.7969 20.1 21.7969 19V5C21.7969 3.9 20.8969 3 19.7969 3H15.6169ZM13.5469 3.5C13.5469 3.91 13.2069 4.25 12.7969 4.25C12.3869 4.25 12.0469 3.91 12.0469 3.5C12.0469 3.09 12.3869 2.75 12.7969 2.75C13.2069 2.75 13.5469 3.09 13.5469 3.5Z" fill="#007A3D"/>
</svg>
