<svg width="24" height="24" viewBox="0 0 24 24" fill="none" xmlns="http://www.w3.org/2000/svg">
<mask id="mask0_0_4019" style="mask-type:luminance" maskUnits="userSpaceOnUse" x="0" y="0" width="24" height="24">
<path fill-rule="evenodd" clip-rule="evenodd" d="M24 0V24H0V0H24Z" fill="white"/>
</mask>
<g mask="url(#mask0_0_4019)">
<path fill-rule="evenodd" clip-rule="evenodd" d="M16.2803 5.46973L15.2197 6.53027L12.75 4.06055V2.25H11.25V4.06055L8.78027 6.53027L7.71973 5.46973L12 1.18945L16.2803 5.46973ZM11.25 4.06055V15.0469H12.75V4.06055L12 3.31055L11.25 4.06055ZM3.75 19.875V10.875C3.75 10.1583 4.01178 9.52532 4.51855 9.01855L4.71484 8.83984C5.18517 8.45035 5.74804 8.25 6.375 8.25H8.25V9.75H6.375C6.09584 9.75 5.8686 9.82981 5.66504 10.001L5.5791 10.0791C5.35363 10.3046 5.25 10.5562 5.25 10.875V19.875C5.25 20.1938 5.35363 20.4454 5.5791 20.6709L5.66504 20.749C5.8686 20.9202 6.09584 21 6.375 21H17.625C17.9438 21 18.1954 20.8964 18.4209 20.6709C18.6464 20.4454 18.75 20.1938 18.75 19.875V10.875C18.75 10.5562 18.6464 10.3046 18.4209 10.0791C18.1954 9.85363 17.9438 9.75 17.625 9.75H15.75V8.25H17.625C18.3417 8.25 18.9747 8.5118 19.4814 9.01855C19.9882 9.52532 20.25 10.1583 20.25 10.875V19.875C20.25 20.5917 19.9882 21.2247 19.4814 21.7314C18.9747 22.2382 18.3417 22.5 17.625 22.5H6.375C5.74804 22.5 5.18517 22.2996 4.71484 21.9102L4.51855 21.7314C4.01178 21.2247 3.75 20.5917 3.75 19.875Z" fill="#007A3D"/>
<path d="M15.2197 6.53027L14.8662 6.88383L15.2197 7.23738L15.5733 6.88383L15.2197 6.53027ZM16.2803 5.46973L16.6338 5.82328L16.9874 5.46973L16.6338 5.11617L16.2803 5.46973ZM12.75 2.25H13.25V1.75H12.75V2.25ZM11.25 2.25V1.75H10.75V2.25H11.25ZM8.78027 6.53027L8.42672 6.88383L8.78027 7.23738L9.13383 6.88383L8.78027 6.53027ZM7.71973 5.46973L7.36617 5.11617L7.01262 5.46973L7.36617 5.82328L7.71973 5.46973ZM12 1.18945L12.3536 0.8359L12 0.482346L11.6464 0.8359L12 1.18945ZM11.25 15.0469H10.75V15.5469H11.25V15.0469ZM12.75 15.0469V15.5469H13.25V15.0469H12.75ZM12 3.31055L12.3536 2.95699L12 2.60344L11.6464 2.95699L12 3.31055ZM3.75 10.875H3.25H3.75ZM3.75 19.875H3.25H3.75ZM4.51855 9.01855L4.18194 8.64883L4.17328 8.65672L4.165 8.665L4.51855 9.01855ZM4.71484 8.83984L4.39594 8.45475L4.3869 8.46223L4.37823 8.47012L4.71484 8.83984ZM8.25 8.25H8.75V7.75H8.25V8.25ZM8.25 9.75V10.25H8.75V9.75H8.25ZM5.66504 10.001L5.34326 9.61828L5.33586 9.6245L5.3287 9.63101L5.66504 10.001ZM5.5791 10.0791L5.24277 9.70913L5.23396 9.71713L5.22555 9.72555L5.5791 10.0791ZM5.25 10.875L4.75 10.875V10.875H5.25ZM5.25 19.875H4.75H5.25ZM5.5791 20.6709L5.22555 21.0245L5.23396 21.0329L5.24277 21.0409L5.5791 20.6709ZM5.66504 20.749L5.3287 21.119L5.33586 21.1255L5.34325 21.1317L5.66504 20.749ZM18.4209 20.6709L18.7744 21.0245L18.7745 21.0245L18.4209 20.6709ZM18.75 10.875H19.25V10.875L18.75 10.875ZM18.4209 10.0791L18.7745 9.72555L18.7744 9.72555L18.4209 10.0791ZM15.75 9.75H15.25V10.25H15.75V9.75ZM15.75 8.25V7.75H15.25V8.25H15.75ZM19.4814 9.01855L19.835 8.665V8.665L19.4814 9.01855ZM20.25 10.875H20.75V10.875L20.25 10.875ZM19.4814 21.7314L19.835 22.085L19.835 22.085L19.4814 21.7314ZM4.71484 21.9102L4.37823 22.2799L4.3869 22.2878L4.39594 22.2953L4.71484 21.9102ZM4.51855 21.7314L4.165 22.085L4.17328 22.0933L4.18194 22.1012L4.51855 21.7314ZM15.2197 6.53027L15.5733 6.88383L16.6338 5.82328L16.2803 5.46973L15.9267 5.11617L14.8662 6.17672L15.2197 6.53027ZM12.75 4.06055L12.3964 4.4141L14.8662 6.88383L15.2197 6.53027L15.5733 6.17672L13.1036 3.70699L12.75 4.06055ZM12.75 2.25H12.25V4.06055H12.75H13.25V2.25H12.75ZM11.25 2.25V2.75H12.75V2.25V1.75H11.25V2.25ZM11.25 4.06055H11.75V2.25H11.25H10.75V4.06055H11.25ZM8.78027 6.53027L9.13383 6.88383L11.6036 4.4141L11.25 4.06055L10.8964 3.70699L8.42672 6.17672L8.78027 6.53027ZM7.71973 5.46973L7.36617 5.82328L8.42672 6.88383L8.78027 6.53027L9.13383 6.17672L8.07328 5.11617L7.71973 5.46973ZM12 1.18945L11.6464 0.8359L7.36617 5.11617L7.71973 5.46973L8.07328 5.82328L12.3536 1.54301L12 1.18945ZM16.2803 5.46973L16.6338 5.11617L12.3536 0.8359L12 1.18945L11.6464 1.54301L15.9267 5.82328L16.2803 5.46973ZM11.25 15.0469H11.75V4.06055H11.25H10.75V15.0469H11.25ZM12.75 15.0469V14.5469H11.25V15.0469V15.5469H12.75V15.0469ZM12.75 4.06055H12.25V15.0469H12.75H13.25V4.06055H12.75ZM12 3.31055L11.6464 3.6641L12.3964 4.4141L12.75 4.06055L13.1036 3.70699L12.3536 2.95699L12 3.31055ZM11.25 4.06055L11.6036 4.4141L12.3536 3.6641L12 3.31055L11.6464 2.95699L10.8964 3.70699L11.25 4.06055ZM3.75 10.875H3.25V19.875H3.75H4.25V10.875H3.75ZM4.51855 9.01855L4.165 8.665C3.56432 9.26568 3.25 10.0259 3.25 10.875H3.75H4.25C4.25 10.2907 4.45925 9.78496 4.87211 9.37211L4.51855 9.01855ZM4.71484 8.83984L4.37823 8.47012L4.18194 8.64883L4.51855 9.01855L4.85517 9.38828L5.05145 9.20956L4.71484 8.83984ZM6.375 8.25V7.75C5.63467 7.75 4.95828 7.98906 4.39594 8.45475L4.71484 8.83984L5.03375 9.22494C5.41207 8.91165 5.86142 8.75 6.375 8.75V8.25ZM8.25 8.25V7.75H6.375V8.25V8.75H8.25V8.25ZM8.25 9.75H8.75V8.25H8.25H7.75V9.75H8.25ZM6.375 9.75V10.25H8.25V9.75V9.25H6.375V9.75ZM5.66504 10.001L5.98682 10.3837C6.09478 10.2929 6.20617 10.25 6.375 10.25V9.75V9.25C5.9855 9.25 5.64242 9.36673 5.34326 9.61828L5.66504 10.001ZM5.5791 10.0791L5.91544 10.4491L6.00138 10.3709L5.66504 10.001L5.3287 9.63101L5.24277 9.70913L5.5791 10.0791ZM5.25 10.875L5.75 10.875C5.75 10.6881 5.80143 10.5639 5.93265 10.4327L5.5791 10.0791L5.22555 9.72555C4.90584 10.0453 4.75 10.4242 4.75 10.875L5.25 10.875ZM5.25 19.875H5.75V10.875H5.25H4.75V19.875H5.25ZM5.5791 20.6709L5.93265 20.3173C5.80143 20.1861 5.75 20.0619 5.75 19.875H5.25H4.75C4.75 20.3258 4.90584 20.7047 5.22555 21.0245L5.5791 20.6709ZM5.66504 20.749L6.00138 20.3791L5.91544 20.3009L5.5791 20.6709L5.24277 21.0409L5.3287 21.119L5.66504 20.749ZM6.375 21V20.5C6.20617 20.5 6.09478 20.4571 5.98682 20.3663L5.66504 20.749L5.34325 21.1317C5.64242 21.3833 5.9855 21.5 6.375 21.5V21ZM17.625 21V20.5H6.375V21V21.5H17.625V21ZM18.4209 20.6709L18.0673 20.3173C17.9361 20.4486 17.8119 20.5 17.625 20.5V21V21.5C18.0758 21.5 18.4547 21.3442 18.7744 21.0245L18.4209 20.6709ZM18.75 19.875H18.25C18.25 20.0619 18.1986 20.1861 18.0673 20.3173L18.4209 20.6709L18.7745 21.0245C19.0942 20.7047 19.25 20.3258 19.25 19.875H18.75ZM18.75 10.875H18.25V19.875H18.75H19.25V10.875H18.75ZM18.4209 10.0791L18.0673 10.4327C18.1986 10.5639 18.25 10.6881 18.25 10.875L18.75 10.875L19.25 10.875C19.25 10.4242 19.0942 10.0453 18.7745 9.72555L18.4209 10.0791ZM17.625 9.75V10.25C17.8119 10.25 17.9361 10.3014 18.0673 10.4327L18.4209 10.0791L18.7744 9.72555C18.4547 9.40583 18.0758 9.25 17.625 9.25V9.75ZM15.75 9.75V10.25H17.625V9.75V9.25H15.75V9.75ZM15.75 8.25H15.25V9.75H15.75H16.25V8.25H15.75ZM17.625 8.25V7.75H15.75V8.25V8.75H17.625V8.25ZM19.4814 9.01855L19.835 8.665C19.2343 8.06434 18.4741 7.75 17.625 7.75V8.25V8.75C18.2093 8.75 18.715 8.95926 19.1279 9.37211L19.4814 9.01855ZM20.25 10.875L20.75 10.875C20.75 10.0259 20.4357 9.26568 19.835 8.665L19.4814 9.01855L19.1279 9.37211C19.5407 9.78496 19.75 10.2907 19.75 10.875L20.25 10.875ZM20.25 19.875H20.75V10.875H20.25H19.75V19.875H20.25ZM19.4814 21.7314L19.835 22.085C20.4357 21.4843 20.75 20.7241 20.75 19.875H20.25H19.75C19.75 20.4593 19.5407 20.965 19.1279 21.3779L19.4814 21.7314ZM17.625 22.5V23C18.4741 23 19.2343 22.6857 19.835 22.085L19.4814 21.7314L19.1279 21.3779C18.715 21.7907 18.2093 22 17.625 22V22.5ZM6.375 22.5V23H17.625V22.5V22H6.375V22.5ZM4.71484 21.9102L4.39594 22.2953C4.95828 22.7609 5.63467 23 6.375 23V22.5V22C5.86142 22 5.41207 21.8384 5.03375 21.5251L4.71484 21.9102ZM4.51855 21.7314L4.18194 22.1012L4.37823 22.2799L4.71484 21.9102L5.05145 21.5404L4.85517 21.3617L4.51855 21.7314ZM3.75 19.875H3.25C3.25 20.7241 3.56432 21.4843 4.165 22.085L4.51855 21.7314L4.87211 21.3779C4.45925 20.965 4.25 20.4593 4.25 19.875H3.75Z" fill="#007A3D"/>
</g>
</svg>
